<mxfile host="app.diagrams.net" modified="2021-11-03T03:37:42.618Z" agent="5.0 (Macintosh; Intel Mac OS X 10_14_6) AppleWebKit/537.36 (KHTML, like Gecko) Chrome/95.0.4638.54 Safari/537.36" etag="AkQ0i_6n9aUzCnEzGr_t" version="15.5.8" type="github">
  <diagram id="pipqQ_E6n3lZ8hAVYIzE" name="Page-1">
    <mxGraphModel dx="2222" dy="2078" grid="1" gridSize="10" guides="1" tooltips="1" connect="1" arrows="1" fold="1" page="1" pageScale="1" pageWidth="827" pageHeight="1169" math="0" shadow="0">
      <root>
        <mxCell id="0" />
        <mxCell id="1" parent="0" />
        <mxCell id="qb8SzJnQ2sGDi6gfCLAQ-268" value="" style="endArrow=classic;html=1;rounded=0;fontSize=18;strokeWidth=2;" parent="1" edge="1">
          <mxGeometry width="50" height="50" relative="1" as="geometry">
            <mxPoint x="294" y="-190" as="sourcePoint" />
            <mxPoint x="293.90999999999997" y="-410.5" as="targetPoint" />
          </mxGeometry>
        </mxCell>
        <mxCell id="qb8SzJnQ2sGDi6gfCLAQ-267" value="" style="endArrow=classic;html=1;rounded=0;fontSize=18;strokeWidth=2;" parent="1" edge="1">
          <mxGeometry width="50" height="50" relative="1" as="geometry">
            <mxPoint x="233" y="-210" as="sourcePoint" />
            <mxPoint x="233" y="-420" as="targetPoint" />
          </mxGeometry>
        </mxCell>
        <mxCell id="qb8SzJnQ2sGDi6gfCLAQ-247" value="" style="endArrow=classic;html=1;rounded=0;fontSize=18;strokeWidth=2;" parent="1" edge="1">
          <mxGeometry width="50" height="50" relative="1" as="geometry">
            <mxPoint x="173" y="-240" as="sourcePoint" />
            <mxPoint x="173.09000000000015" y="-436" as="targetPoint" />
          </mxGeometry>
        </mxCell>
        <mxCell id="qb8SzJnQ2sGDi6gfCLAQ-69" value="" style="shape=cube;whiteSpace=wrap;html=1;boundedLbl=1;backgroundOutline=1;darkOpacity=0.05;darkOpacity2=0.1;size=20;rotation=90;fillColor=#1ba1e2;strokeColor=#006EAF;fontColor=#ffffff;" parent="1" vertex="1">
          <mxGeometry x="250" y="599" width="40" height="40" as="geometry" />
        </mxCell>
        <mxCell id="qb8SzJnQ2sGDi6gfCLAQ-70" value="" style="shape=cube;whiteSpace=wrap;html=1;boundedLbl=1;backgroundOutline=1;darkOpacity=0.05;darkOpacity2=0.1;size=20;rotation=90;fillColor=#1ba1e2;strokeColor=#006EAF;fontColor=#ffffff;" parent="1" vertex="1">
          <mxGeometry x="270" y="599" width="40" height="40" as="geometry" />
        </mxCell>
        <mxCell id="qb8SzJnQ2sGDi6gfCLAQ-71" value="" style="shape=cube;whiteSpace=wrap;html=1;boundedLbl=1;backgroundOutline=1;darkOpacity=0.05;darkOpacity2=0.1;size=20;rotation=90;fillColor=#1ba1e2;strokeColor=#006EAF;fontColor=#ffffff;" parent="1" vertex="1">
          <mxGeometry x="290" y="599" width="40" height="40" as="geometry" />
        </mxCell>
        <mxCell id="qb8SzJnQ2sGDi6gfCLAQ-72" value="" style="shape=cube;whiteSpace=wrap;html=1;boundedLbl=1;backgroundOutline=1;darkOpacity=0.05;darkOpacity2=0.1;size=20;rotation=90;fillColor=#1ba1e2;strokeColor=#006EAF;fontColor=#ffffff;" parent="1" vertex="1">
          <mxGeometry x="310" y="599" width="40" height="40" as="geometry" />
        </mxCell>
        <mxCell id="qb8SzJnQ2sGDi6gfCLAQ-73" value="" style="shape=cube;whiteSpace=wrap;html=1;boundedLbl=1;backgroundOutline=1;darkOpacity=0.05;darkOpacity2=0.1;size=20;rotation=90;fillColor=#1ba1e2;strokeColor=#006EAF;fontColor=#ffffff;" parent="1" vertex="1">
          <mxGeometry x="330" y="599" width="40" height="40" as="geometry" />
        </mxCell>
        <mxCell id="qb8SzJnQ2sGDi6gfCLAQ-74" value="" style="shape=cube;whiteSpace=wrap;html=1;boundedLbl=1;backgroundOutline=1;darkOpacity=0.05;darkOpacity2=0.1;size=20;rotation=90;fillColor=#1ba1e2;strokeColor=#006EAF;fontColor=#ffffff;" parent="1" vertex="1">
          <mxGeometry x="350" y="599" width="40" height="40" as="geometry" />
        </mxCell>
        <mxCell id="qb8SzJnQ2sGDi6gfCLAQ-75" value="" style="shape=cube;whiteSpace=wrap;html=1;boundedLbl=1;backgroundOutline=1;darkOpacity=0.05;darkOpacity2=0.1;size=20;rotation=90;fillColor=#1ba1e2;strokeColor=#006EAF;fontColor=#ffffff;" parent="1" vertex="1">
          <mxGeometry x="249.5" y="579" width="40" height="40" as="geometry" />
        </mxCell>
        <mxCell id="qb8SzJnQ2sGDi6gfCLAQ-76" value="" style="shape=cube;whiteSpace=wrap;html=1;boundedLbl=1;backgroundOutline=1;darkOpacity=0.05;darkOpacity2=0.1;size=20;rotation=90;fillColor=#1ba1e2;strokeColor=#006EAF;fontColor=#ffffff;" parent="1" vertex="1">
          <mxGeometry x="269.5" y="579" width="40" height="40" as="geometry" />
        </mxCell>
        <mxCell id="qb8SzJnQ2sGDi6gfCLAQ-77" value="" style="shape=cube;whiteSpace=wrap;html=1;boundedLbl=1;backgroundOutline=1;darkOpacity=0.05;darkOpacity2=0.1;size=20;rotation=90;fillColor=#1ba1e2;strokeColor=#006EAF;fontColor=#ffffff;" parent="1" vertex="1">
          <mxGeometry x="289.5" y="579" width="40" height="40" as="geometry" />
        </mxCell>
        <mxCell id="qb8SzJnQ2sGDi6gfCLAQ-78" value="" style="shape=cube;whiteSpace=wrap;html=1;boundedLbl=1;backgroundOutline=1;darkOpacity=0.05;darkOpacity2=0.1;size=20;rotation=90;fillColor=#1ba1e2;strokeColor=#006EAF;fontColor=#ffffff;" parent="1" vertex="1">
          <mxGeometry x="309.5" y="579" width="40" height="40" as="geometry" />
        </mxCell>
        <mxCell id="qb8SzJnQ2sGDi6gfCLAQ-79" value="" style="shape=cube;whiteSpace=wrap;html=1;boundedLbl=1;backgroundOutline=1;darkOpacity=0.05;darkOpacity2=0.1;size=20;rotation=90;fillColor=#1ba1e2;strokeColor=#006EAF;fontColor=#ffffff;" parent="1" vertex="1">
          <mxGeometry x="329.5" y="579" width="40" height="40" as="geometry" />
        </mxCell>
        <mxCell id="qb8SzJnQ2sGDi6gfCLAQ-80" value="" style="shape=cube;whiteSpace=wrap;html=1;boundedLbl=1;backgroundOutline=1;darkOpacity=0.05;darkOpacity2=0.1;size=20;rotation=90;fillColor=#1ba1e2;strokeColor=#006EAF;fontColor=#ffffff;" parent="1" vertex="1">
          <mxGeometry x="349.5" y="579" width="40" height="40" as="geometry" />
        </mxCell>
        <mxCell id="qb8SzJnQ2sGDi6gfCLAQ-63" value="" style="shape=cube;whiteSpace=wrap;html=1;boundedLbl=1;backgroundOutline=1;darkOpacity=0.05;darkOpacity2=0.1;size=20;rotation=90;fillColor=#1ba1e2;strokeColor=#006EAF;fontColor=#ffffff;" parent="1" vertex="1">
          <mxGeometry x="249.5" y="559" width="40" height="40" as="geometry" />
        </mxCell>
        <mxCell id="qb8SzJnQ2sGDi6gfCLAQ-64" value="" style="shape=cube;whiteSpace=wrap;html=1;boundedLbl=1;backgroundOutline=1;darkOpacity=0.05;darkOpacity2=0.1;size=20;rotation=90;fillColor=#1ba1e2;strokeColor=#006EAF;fontColor=#ffffff;" parent="1" vertex="1">
          <mxGeometry x="269.5" y="559" width="40" height="40" as="geometry" />
        </mxCell>
        <mxCell id="qb8SzJnQ2sGDi6gfCLAQ-65" value="" style="shape=cube;whiteSpace=wrap;html=1;boundedLbl=1;backgroundOutline=1;darkOpacity=0.05;darkOpacity2=0.1;size=20;rotation=90;fillColor=#1ba1e2;strokeColor=#006EAF;fontColor=#ffffff;" parent="1" vertex="1">
          <mxGeometry x="289.5" y="559" width="40" height="40" as="geometry" />
        </mxCell>
        <mxCell id="qb8SzJnQ2sGDi6gfCLAQ-66" value="" style="shape=cube;whiteSpace=wrap;html=1;boundedLbl=1;backgroundOutline=1;darkOpacity=0.05;darkOpacity2=0.1;size=20;rotation=90;fillColor=#1ba1e2;strokeColor=#006EAF;fontColor=#ffffff;" parent="1" vertex="1">
          <mxGeometry x="309.5" y="559" width="40" height="40" as="geometry" />
        </mxCell>
        <mxCell id="qb8SzJnQ2sGDi6gfCLAQ-67" value="" style="shape=cube;whiteSpace=wrap;html=1;boundedLbl=1;backgroundOutline=1;darkOpacity=0.05;darkOpacity2=0.1;size=20;rotation=90;fillColor=#1ba1e2;strokeColor=#006EAF;fontColor=#ffffff;" parent="1" vertex="1">
          <mxGeometry x="329.5" y="559" width="40" height="40" as="geometry" />
        </mxCell>
        <mxCell id="qb8SzJnQ2sGDi6gfCLAQ-68" value="" style="shape=cube;whiteSpace=wrap;html=1;boundedLbl=1;backgroundOutline=1;darkOpacity=0.05;darkOpacity2=0.1;size=20;rotation=90;fillColor=#1ba1e2;strokeColor=#006EAF;fontColor=#ffffff;" parent="1" vertex="1">
          <mxGeometry x="349.5" y="559" width="40" height="40" as="geometry" />
        </mxCell>
        <mxCell id="qb8SzJnQ2sGDi6gfCLAQ-3" value="" style="rounded=1;whiteSpace=wrap;html=1;align=center;fillColor=#f9f7ed;strokeColor=#36393d;" parent="1" vertex="1">
          <mxGeometry x="537.63" y="-83" width="654.25" height="350" as="geometry" />
        </mxCell>
        <mxCell id="qb8SzJnQ2sGDi6gfCLAQ-2" value="" style="shape=cube;whiteSpace=wrap;html=1;boundedLbl=1;backgroundOutline=1;darkOpacity=0.05;darkOpacity2=0.1;fillColor=#f8cecc;strokeColor=#b85450;" parent="1" vertex="1">
          <mxGeometry x="575.63" y="23" width="50" height="80" as="geometry" />
        </mxCell>
        <mxCell id="qb8SzJnQ2sGDi6gfCLAQ-1" value="" style="shape=cube;whiteSpace=wrap;html=1;boundedLbl=1;backgroundOutline=1;darkOpacity=0.05;darkOpacity2=0.1;fillColor=#dae8fc;strokeColor=#6c8ebf;" parent="1" vertex="1">
          <mxGeometry x="545.63" y="22.5" width="50" height="80" as="geometry" />
        </mxCell>
        <mxCell id="qb8SzJnQ2sGDi6gfCLAQ-8" value="&lt;font face=&quot;Times New Roman&quot; style=&quot;font-size: 15px&quot;&gt;VMHA&lt;/font&gt;" style="rounded=1;whiteSpace=wrap;html=1;align=center;horizontal=0;rotation=-180;fillColor=#fff2cc;strokeColor=#d6b656;fontSize=15;fontStyle=1" parent="1" vertex="1">
          <mxGeometry x="694.63" y="-62.5" width="39.25" height="90" as="geometry" />
        </mxCell>
        <mxCell id="qb8SzJnQ2sGDi6gfCLAQ-9" value="" style="endArrow=classic;html=1;" parent="1" edge="1">
          <mxGeometry width="50" height="50" relative="1" as="geometry">
            <mxPoint x="736.13" y="-21.499999999999964" as="sourcePoint" />
            <mxPoint x="766.13" y="-21.499999999999964" as="targetPoint" />
          </mxGeometry>
        </mxCell>
        <mxCell id="qb8SzJnQ2sGDi6gfCLAQ-10" value="" style="endArrow=classic;html=1;exitX=0.995;exitY=0.514;exitDx=0;exitDy=0;exitPerimeter=0;" parent="1" edge="1">
          <mxGeometry width="50" height="50" relative="1" as="geometry">
            <mxPoint x="630.38" y="57.5" as="sourcePoint" />
            <mxPoint x="690.13" y="-2.5" as="targetPoint" />
            <Array as="points">
              <mxPoint x="690.38" y="-2.5" />
            </Array>
          </mxGeometry>
        </mxCell>
        <mxCell id="qb8SzJnQ2sGDi6gfCLAQ-13" value="" style="endArrow=classic;html=1;" parent="1" edge="1">
          <mxGeometry width="50" height="50" relative="1" as="geometry">
            <mxPoint x="809.88" y="-21.499999999999964" as="sourcePoint" />
            <mxPoint x="839.88" y="-21.499999999999964" as="targetPoint" />
          </mxGeometry>
        </mxCell>
        <mxCell id="qb8SzJnQ2sGDi6gfCLAQ-14" value="MLP" style="rounded=1;whiteSpace=wrap;html=1;align=center;horizontal=0;rotation=-180;fillColor=#fff2cc;strokeColor=#d6b656;fontFamily=Times New Roman;fontSize=15;" parent="1" vertex="1">
          <mxGeometry x="845.13" y="-63.5" width="39.25" height="90" as="geometry" />
        </mxCell>
        <mxCell id="qb8SzJnQ2sGDi6gfCLAQ-15" value="" style="endArrow=classic;html=1;" parent="1" edge="1">
          <mxGeometry width="50" height="50" relative="1" as="geometry">
            <mxPoint x="886.38" y="-20.499999999999964" as="sourcePoint" />
            <mxPoint x="916.38" y="-20.499999999999964" as="targetPoint" />
          </mxGeometry>
        </mxCell>
        <mxCell id="qb8SzJnQ2sGDi6gfCLAQ-16" value="Add &amp;amp; Norm" style="rounded=1;whiteSpace=wrap;html=1;align=center;horizontal=0;rotation=-180;fontFamily=Times New Roman;fontSize=15;" parent="1" vertex="1">
          <mxGeometry x="919.13" y="-62.5" width="39.25" height="90" as="geometry" />
        </mxCell>
        <mxCell id="qb8SzJnQ2sGDi6gfCLAQ-25" value="" style="endArrow=classic;html=1;exitX=0.995;exitY=0.514;exitDx=0;exitDy=0;exitPerimeter=0;" parent="1" edge="1">
          <mxGeometry width="50" height="50" relative="1" as="geometry">
            <mxPoint x="631.38" y="82" as="sourcePoint" />
            <mxPoint x="691.13" y="142" as="targetPoint" />
            <Array as="points">
              <mxPoint x="691.38" y="142" />
            </Array>
          </mxGeometry>
        </mxCell>
        <mxCell id="qb8SzJnQ2sGDi6gfCLAQ-29" value="" style="endArrow=classic;html=1;" parent="1" edge="1">
          <mxGeometry width="50" height="50" relative="1" as="geometry">
            <mxPoint x="969.88" y="-12.5" as="sourcePoint" />
            <mxPoint x="1049.88" y="47.5" as="targetPoint" />
          </mxGeometry>
        </mxCell>
        <mxCell id="qb8SzJnQ2sGDi6gfCLAQ-30" value="" style="endArrow=classic;html=1;" parent="1" edge="1">
          <mxGeometry width="50" height="50" relative="1" as="geometry">
            <mxPoint x="969.88" y="157.5" as="sourcePoint" />
            <mxPoint x="1049.88" y="87.5" as="targetPoint" />
          </mxGeometry>
        </mxCell>
        <mxCell id="qb8SzJnQ2sGDi6gfCLAQ-32" value="" style="shape=image;verticalLabelPosition=bottom;labelBackgroundColor=#ffffff;verticalAlign=top;aspect=fixed;imageAspect=0;image=data:image/png,iVBORw0KGgoAAAANSUhEUgAAAFIAAABYCAYAAABmt6D9AAAKf0lEQVR4Ae2dBagVTRTHn93drRjYimILNpigYmGCLWIndouK9VBsFAtRERUTuxEVW7EVEQzsziP/ld03Mzubd+v7uAPP3b07O3vmt2dmzpwJEygePCGQ4Ekq8UQoDtIjJYiDjIP0iIBHycQ18v8E8tWrV7R3715KTEyksWPHUvfu3alx48ZUu3Ztql69OtWoUYPq1q1LrVq1on79+tG0adNo9erVdO7cOfr27ZtHKGJLJnCN/P37N125coWWLVumACtZsiQlJCS4/kuTJg3VqlWLhg8fTtu2baNnz57FRsTl04GBfP36Nc2bN4+KFSvmGppd4E2aNKHdu3fTr1+/XGJx/pjvIKF9vXv3pnTp0vkOUARdtGhRmjt3LuEj+h18Afnjxw/asmWLUq+JmbO6zpEjB1WoUIHKlSunA1+nTh0qUaKE44+SNm1a6tWrF12+fNk3np6DhLAAYQUM9/PkyUOtW7emOXPm0MmTJ+nTp09aRtGYiGl8/vxZuf/nzx+lLtyxYweNGjVK+WCAJcaXXffp04c+fPigvcerE89AQgunTp1KKVOmNM1Q7ty5aeLEiXT//n0CEKNgBlL2zPfv3+nYsWPUsWNHSxmKFClCR44ckSXj+jdPQF6/fp2qVKliCrBmzZq0adMm2+aKU5AsAbTckyZNUjReppXqbwMHDuRKAZuG0/OYQP78+ZNmz55NqVOnlkJMlSoV9ejRgy5cuOBULsVOVDOsHtWibTcxaOnmzZsVO1RNQzwWL16cTp06ZTdJw3iuQaKeqV+/vhQghK1cuTJdvXrV8MVWN2LRSDFtVCFIL1OmTFJ5kyVLpphm4nNOrl2BBET0NMSvi2vUkZMnTybUmbEEL0Gqcjx+/JgaNWoklRuyw1RyGxyDNIMIk+XSpUtuZeGe8wMkXoCe1dKlSyl9+vRSoG5hOgJpBnHkyJG2GxKOmMGFXyDV18FqQB9eVqrcwLQN0gyimxerGTI6+g0S7/348aNhFeU0T7ZAfv361bMXGoETfw8CpBXMhQsXimIZXtsCid6DV0XAUBLhRlAg8VojzUyRIoVt080S5JkzZwjmgQjSqeoLnCwvgwRpBrNs2bKEEmkVTEHCAJb5C6dMmWKVbsz3gwYJgaGZsh7a6NGjLfNjCnLw4ME6TYQHJgg/XxggQevmzZsEZzFbApMnT05nz541hWkIEg4ANjGcw6d49+5d0wS9uhkWSMiPakvMO0qmWRdVChKmDpyiYmIYUwkqhAkSJQ7jRWL+hwwZYph9KchZs2bpEmnQoIHSKzBMyeMbYYJEVlDyRK8+Gt2HDx9Kc6oDCY9OoUKFOJAZM2akR48eSRPw68ewQSJfixcv5jhAQ2EKyoIOJLzOokrDYRt0iAJI9MtLly7N8ciWLZu0rtSBRBFmQcKn+Pz586A5euKP9ELoJUuWcDzABh9ZDBzIGzdu6B7q0qWL+Ewg11HQSGQUDa/ox4SvVRwm4UAOGDBABxKzGcIIUQGJvA8aNEjH5fTp0xwWDeS7d+8oQ4YM3ANVq1bVkeee9vEiSiBv377NcUHxxiAbGzSQ69ev10Veu3YtGzfQ8yiBRMYxe0NsO758+aIx0UD279+fi4h6wU5nXUvJ45Oogdy+fTvHB1DZQTMNZKVKlbiI+AJhhqiBfPnyJccHIFkPmAISLRM65qzqYlw4zBA1kGCB6TIsozZt2miIFJBHjx7lIiDy/v37tUhhnEQRZLdu3ThOefPm1RpjBeTMmTO5CAD55s2bMPhp74wiSIw+shqJcwzxIiggRdKlSpXSMhTWSRRBYqhZBHngwIEkkOKgedOmTcPip703iiBRSkWQa9asSQJZpkwZLkLPnj21DIV1EkWQ6BaK0wenT5+eBDJLliwcSNiUt27dCvVvxIgRnEzQhIsXL4YqE5gULFiQkwusEBJAWVTX+LX9xQGdO3f+BxJu9Tg4++BEVh06dPgHEh5x8Wb82j7Y9u3bx4u2FwqjFW3gxJgMmyjsykOHDoX616lTJ04myLdr165QZQKTAgUKcHL17dv3n0biXxjgLEjM/A87RNX8EX226qwTpWcjTmFu0aJF2BwjM2bDgnj//j2ncFC+VatWKVEUkCjnrEZi5m3YIYoaee3aNY4TmGExKoICEnO+WZBwqcG1FmaIIkiZTHfu3EkCCZcZCxLnXi/ocfpRZEKbzb1xmr6b+FiGx3LCcj91NFHRSFlnfMaMGW7e5dkzUQSJuZIsSLYtUUAi96Ljgo3kGR0HCUUN5Nu3bzmIAMoqmwYSHh+Wdvbs2WNeK+OAmy5q1EDu2bOH4wNWbPWngUQzzoLEOVbkhxWiBhLjMywfsUHWQL548UK3prBevXphcYyUHfnkyRPd4KBY9WkgQUwccsAXgO0URoiSRmLDElYbca4OMahsOJDnz5/XPYBdTcIIUQGJSRIwc1iQmAaNKX9s4EDiRrVq1biHsGYvjBHFqIBct24dxwNAFy1axDJUznUgZXOA5s+fr3vQ7x+iABLGNiaSsdoIpwUmnIlBBxKqnCtXLu7hnDlzEhqjIEMUQG7cuJHjAKCY+igLOpCING7cOF0Cbdu21bpDsoS8/i1skNjOIWvWrDoOmIwrC1KQ2GILm3iwKo1z7EkRVAgTJIp08+bNdfnv2rWrYfalIBFbNikfE9GD2jIrTJAY9BeVKH/+/KaNriFIwMT8cTFBGKKqx8Pw83hwIyyQML7FOeNgsG/fPtNcmYKE2ZMvXz4dTGwQ53cIAyT24WjYsKEuv3CfWQVTkHgYHmBRK9HP3LBhg1XaMd0PGiQgiv1p5Ltw4cKEIQarYAkSCYieIbzAb5hBgjSCiHwePnzYiqFy3xZIfBHZpm9+wgwKpBnEMWPG2IKISLZAIiIMctFD7KdmBgHSDCJWwjppVG2DtIKJ/qfYkbf9OSUR/QYJW7lly5a6+h/K4RQixHcE0gwmBMA6Rq9W0foJcufOndIOh1uIrkBawcT0l5UrVzoqFkhTDH6AhDkn87kCYCwQIbtjjVQzjDqzfPny0qIBoTB9+unTp2p0x0evQcKgRu9EhSYehw0bFtPHdw0SZLADqWzBoyokZgKPHz/eFVAvQKKxOHHiBMHhosokHuHZ2rp1q+MPLT4QE0g1MazTke2BoQqNjYjatWtHx48ft/3VYwGJD7xixQrLLWphgHu1Ft0TkACKKS4YllDhGR1RHSxfvlzZY0f9ELKjG5D37t1T9iOXub9YeXAfvkYn5o1MRvY3z0CqiR48eFA3YZ3NhHoOLcVmRdieFZl68OABlzErkNitFGNMMLuw5BddOTVtsyPcY354sDwHCaDoCS1YsICw7apZpsR7cNNVrFhRaaiwUZN4H9OMMUSMwSdxkyMxrniNxg+D/F5qoao8OPoCUn0BDHQ4PZo1a6aDImbUj+vMmTMrxrU6Y0yVy4+jryBZgbGPztChQ0lc0+MHQPgF4OrDXmdBhcBAqhlC5qClEyZMUPa7FeevuwGL+hH1JOpL7DDtV/FV8yA7Bg5SFALrfLA7NMwV9r9ggYMEJhUmv2NDJ/xnGRgaVf8rFszdxqp+PxoOUUY716GDtCPkfyFOHKRHX+kvx5cA30AKQfAAAAAASUVORK5CYII=;" parent="1" vertex="1">
          <mxGeometry x="1059.88" y="55.18999999999998" width="22" height="23.61" as="geometry" />
        </mxCell>
        <mxCell id="qb8SzJnQ2sGDi6gfCLAQ-33" value="" style="endArrow=classic;html=1;" parent="1" edge="1">
          <mxGeometry width="50" height="50" relative="1" as="geometry">
            <mxPoint x="637.13" y="69" as="sourcePoint" />
            <mxPoint x="1051.88" y="69" as="targetPoint" />
          </mxGeometry>
        </mxCell>
        <mxCell id="qb8SzJnQ2sGDi6gfCLAQ-34" value="" style="shape=cube;whiteSpace=wrap;html=1;boundedLbl=1;backgroundOutline=1;darkOpacity=0.05;darkOpacity2=0.1;align=center;fillColor=#e1d5e7;strokeColor=#9673a6;" parent="1" vertex="1">
          <mxGeometry x="817.38" y="35.5" width="32" height="64.5" as="geometry" />
        </mxCell>
        <mxCell id="qb8SzJnQ2sGDi6gfCLAQ-35" value="" style="shape=cube;whiteSpace=wrap;html=1;boundedLbl=1;backgroundOutline=1;darkOpacity=0.05;darkOpacity2=0.1;align=center;fillColor=#e1d5e7;strokeColor=#9673a6;" parent="1" vertex="1">
          <mxGeometry x="807.38" y="35.5" width="31" height="65.5" as="geometry" />
        </mxCell>
        <mxCell id="qb8SzJnQ2sGDi6gfCLAQ-36" value="&lt;font style=&quot;font-size: 16px;&quot; face=&quot;Times New Roman&quot;&gt;&lt;i style=&quot;font-size: 16px;&quot;&gt;&lt;b style=&quot;font-size: 16px;&quot;&gt;Convolution Layer&lt;/b&gt;&lt;/i&gt;&lt;/font&gt;" style="text;html=1;align=center;verticalAlign=middle;resizable=0;points=[];autosize=1;fontSize=16;" parent="1" vertex="1">
          <mxGeometry x="846.88" y="68.80000000000001" width="140" height="30" as="geometry" />
        </mxCell>
        <mxCell id="qb8SzJnQ2sGDi6gfCLAQ-37" value="" style="shape=cube;whiteSpace=wrap;html=1;boundedLbl=1;backgroundOutline=1;darkOpacity=0.05;darkOpacity2=0.1;fillColor=#fff2cc;strokeColor=#d6b656;" parent="1" vertex="1">
          <mxGeometry x="1133.88" y="27.5" width="50" height="80" as="geometry" />
        </mxCell>
        <mxCell id="qb8SzJnQ2sGDi6gfCLAQ-38" value="" style="shape=cube;whiteSpace=wrap;html=1;boundedLbl=1;backgroundOutline=1;darkOpacity=0.05;darkOpacity2=0.1;size=20;rotation=90;fillColor=#1ba1e2;strokeColor=#006EAF;fontColor=#ffffff;" parent="1" vertex="1">
          <mxGeometry x="250" y="540" width="40" height="40" as="geometry" />
        </mxCell>
        <mxCell id="qb8SzJnQ2sGDi6gfCLAQ-39" value="&lt;font style=&quot;font-size: 18px&quot;&gt;VMHA&lt;/font&gt;" style="text;html=1;align=center;verticalAlign=middle;resizable=0;points=[];autosize=1;strokeColor=none;fillColor=none;" parent="1" vertex="1">
          <mxGeometry x="110" y="520" width="70" height="20" as="geometry" />
        </mxCell>
        <mxCell id="qb8SzJnQ2sGDi6gfCLAQ-51" value="" style="shape=cube;whiteSpace=wrap;html=1;boundedLbl=1;backgroundOutline=1;darkOpacity=0.05;darkOpacity2=0.1;size=20;rotation=90;fillColor=#1ba1e2;strokeColor=#006EAF;fontColor=#ffffff;" parent="1" vertex="1">
          <mxGeometry x="270" y="540" width="40" height="40" as="geometry" />
        </mxCell>
        <mxCell id="qb8SzJnQ2sGDi6gfCLAQ-52" value="" style="shape=cube;whiteSpace=wrap;html=1;boundedLbl=1;backgroundOutline=1;darkOpacity=0.05;darkOpacity2=0.1;size=20;rotation=90;fillColor=#1ba1e2;strokeColor=#006EAF;fontColor=#ffffff;" parent="1" vertex="1">
          <mxGeometry x="290" y="540" width="40" height="40" as="geometry" />
        </mxCell>
        <mxCell id="qb8SzJnQ2sGDi6gfCLAQ-60" value="" style="shape=cube;whiteSpace=wrap;html=1;boundedLbl=1;backgroundOutline=1;darkOpacity=0.05;darkOpacity2=0.1;size=20;rotation=90;fillColor=#1ba1e2;strokeColor=#006EAF;fontColor=#ffffff;" parent="1" vertex="1">
          <mxGeometry x="310" y="540" width="40" height="40" as="geometry" />
        </mxCell>
        <mxCell id="qb8SzJnQ2sGDi6gfCLAQ-61" value="" style="shape=cube;whiteSpace=wrap;html=1;boundedLbl=1;backgroundOutline=1;darkOpacity=0.05;darkOpacity2=0.1;size=20;rotation=90;fillColor=#1ba1e2;strokeColor=#006EAF;fontColor=#ffffff;" parent="1" vertex="1">
          <mxGeometry x="330" y="540" width="40" height="40" as="geometry" />
        </mxCell>
        <mxCell id="qb8SzJnQ2sGDi6gfCLAQ-62" value="" style="shape=cube;whiteSpace=wrap;html=1;boundedLbl=1;backgroundOutline=1;darkOpacity=0.05;darkOpacity2=0.1;size=20;rotation=90;fillColor=#1ba1e2;strokeColor=#006EAF;fontColor=#ffffff;" parent="1" vertex="1">
          <mxGeometry x="350" y="540" width="40" height="40" as="geometry" />
        </mxCell>
        <mxCell id="qb8SzJnQ2sGDi6gfCLAQ-108" value="" style="shape=cube;whiteSpace=wrap;html=1;boundedLbl=1;backgroundOutline=1;darkOpacity=0.05;darkOpacity2=0.1;size=20;rotation=90;fillColor=#1ba1e2;strokeColor=#006EAF;fontColor=#ffffff;" parent="1" vertex="1">
          <mxGeometry x="231.5" y="619" width="40" height="40" as="geometry" />
        </mxCell>
        <mxCell id="qb8SzJnQ2sGDi6gfCLAQ-109" value="" style="shape=cube;whiteSpace=wrap;html=1;boundedLbl=1;backgroundOutline=1;darkOpacity=0.05;darkOpacity2=0.1;size=20;rotation=90;fillColor=#1ba1e2;strokeColor=#006EAF;fontColor=#ffffff;" parent="1" vertex="1">
          <mxGeometry x="251.5" y="619" width="40" height="40" as="geometry" />
        </mxCell>
        <mxCell id="qb8SzJnQ2sGDi6gfCLAQ-110" value="" style="shape=cube;whiteSpace=wrap;html=1;boundedLbl=1;backgroundOutline=1;darkOpacity=0.05;darkOpacity2=0.1;size=20;rotation=90;fillColor=#1ba1e2;strokeColor=#006EAF;fontColor=#ffffff;" parent="1" vertex="1">
          <mxGeometry x="271.5" y="619" width="40" height="40" as="geometry" />
        </mxCell>
        <mxCell id="qb8SzJnQ2sGDi6gfCLAQ-111" value="" style="shape=cube;whiteSpace=wrap;html=1;boundedLbl=1;backgroundOutline=1;darkOpacity=0.05;darkOpacity2=0.1;size=20;rotation=90;fillColor=#1ba1e2;strokeColor=#006EAF;fontColor=#ffffff;" parent="1" vertex="1">
          <mxGeometry x="291.5" y="619" width="40" height="40" as="geometry" />
        </mxCell>
        <mxCell id="qb8SzJnQ2sGDi6gfCLAQ-112" value="" style="shape=cube;whiteSpace=wrap;html=1;boundedLbl=1;backgroundOutline=1;darkOpacity=0.05;darkOpacity2=0.1;size=20;rotation=90;fillColor=#1ba1e2;strokeColor=#006EAF;fontColor=#ffffff;" parent="1" vertex="1">
          <mxGeometry x="311.5" y="619" width="40" height="40" as="geometry" />
        </mxCell>
        <mxCell id="qb8SzJnQ2sGDi6gfCLAQ-113" value="" style="shape=cube;whiteSpace=wrap;html=1;boundedLbl=1;backgroundOutline=1;darkOpacity=0.05;darkOpacity2=0.1;size=20;rotation=90;fillColor=#1ba1e2;strokeColor=#006EAF;fontColor=#ffffff;" parent="1" vertex="1">
          <mxGeometry x="331.5" y="619" width="40" height="40" as="geometry" />
        </mxCell>
        <mxCell id="qb8SzJnQ2sGDi6gfCLAQ-114" value="" style="shape=cube;whiteSpace=wrap;html=1;boundedLbl=1;backgroundOutline=1;darkOpacity=0.05;darkOpacity2=0.1;size=20;rotation=90;fillColor=#1ba1e2;strokeColor=#006EAF;fontColor=#ffffff;" parent="1" vertex="1">
          <mxGeometry x="231" y="599" width="40" height="40" as="geometry" />
        </mxCell>
        <mxCell id="qb8SzJnQ2sGDi6gfCLAQ-115" value="" style="shape=cube;whiteSpace=wrap;html=1;boundedLbl=1;backgroundOutline=1;darkOpacity=0.05;darkOpacity2=0.1;size=20;rotation=90;fillColor=#1ba1e2;strokeColor=#006EAF;fontColor=#ffffff;" parent="1" vertex="1">
          <mxGeometry x="251" y="599" width="40" height="40" as="geometry" />
        </mxCell>
        <mxCell id="qb8SzJnQ2sGDi6gfCLAQ-116" value="" style="shape=cube;whiteSpace=wrap;html=1;boundedLbl=1;backgroundOutline=1;darkOpacity=0.05;darkOpacity2=0.1;size=20;rotation=90;fillColor=#1ba1e2;strokeColor=#006EAF;fontColor=#ffffff;" parent="1" vertex="1">
          <mxGeometry x="271" y="599" width="40" height="40" as="geometry" />
        </mxCell>
        <mxCell id="qb8SzJnQ2sGDi6gfCLAQ-117" value="" style="shape=cube;whiteSpace=wrap;html=1;boundedLbl=1;backgroundOutline=1;darkOpacity=0.05;darkOpacity2=0.1;size=20;rotation=90;fillColor=#1ba1e2;strokeColor=#006EAF;fontColor=#ffffff;" parent="1" vertex="1">
          <mxGeometry x="291" y="599" width="40" height="40" as="geometry" />
        </mxCell>
        <mxCell id="qb8SzJnQ2sGDi6gfCLAQ-118" value="" style="shape=cube;whiteSpace=wrap;html=1;boundedLbl=1;backgroundOutline=1;darkOpacity=0.05;darkOpacity2=0.1;size=20;rotation=90;fillColor=#1ba1e2;strokeColor=#006EAF;fontColor=#ffffff;" parent="1" vertex="1">
          <mxGeometry x="311" y="599" width="40" height="40" as="geometry" />
        </mxCell>
        <mxCell id="qb8SzJnQ2sGDi6gfCLAQ-119" value="" style="shape=cube;whiteSpace=wrap;html=1;boundedLbl=1;backgroundOutline=1;darkOpacity=0.05;darkOpacity2=0.1;size=20;rotation=90;fillColor=#1ba1e2;strokeColor=#006EAF;fontColor=#ffffff;" parent="1" vertex="1">
          <mxGeometry x="331" y="599" width="40" height="40" as="geometry" />
        </mxCell>
        <mxCell id="qb8SzJnQ2sGDi6gfCLAQ-120" value="" style="shape=cube;whiteSpace=wrap;html=1;boundedLbl=1;backgroundOutline=1;darkOpacity=0.05;darkOpacity2=0.1;size=20;rotation=90;fillColor=#1ba1e2;strokeColor=#006EAF;fontColor=#ffffff;" parent="1" vertex="1">
          <mxGeometry x="231" y="579" width="40" height="40" as="geometry" />
        </mxCell>
        <mxCell id="qb8SzJnQ2sGDi6gfCLAQ-121" value="" style="shape=cube;whiteSpace=wrap;html=1;boundedLbl=1;backgroundOutline=1;darkOpacity=0.05;darkOpacity2=0.1;size=20;rotation=90;fillColor=#1ba1e2;strokeColor=#006EAF;fontColor=#ffffff;" parent="1" vertex="1">
          <mxGeometry x="251" y="579" width="40" height="40" as="geometry" />
        </mxCell>
        <mxCell id="qb8SzJnQ2sGDi6gfCLAQ-122" value="" style="shape=cube;whiteSpace=wrap;html=1;boundedLbl=1;backgroundOutline=1;darkOpacity=0.05;darkOpacity2=0.1;size=20;rotation=90;fillColor=#1ba1e2;strokeColor=#006EAF;fontColor=#ffffff;" parent="1" vertex="1">
          <mxGeometry x="271" y="579" width="40" height="40" as="geometry" />
        </mxCell>
        <mxCell id="qb8SzJnQ2sGDi6gfCLAQ-123" value="" style="shape=cube;whiteSpace=wrap;html=1;boundedLbl=1;backgroundOutline=1;darkOpacity=0.05;darkOpacity2=0.1;size=20;rotation=90;fillColor=#1ba1e2;strokeColor=#006EAF;fontColor=#ffffff;" parent="1" vertex="1">
          <mxGeometry x="291" y="579" width="40" height="40" as="geometry" />
        </mxCell>
        <mxCell id="qb8SzJnQ2sGDi6gfCLAQ-124" value="" style="shape=cube;whiteSpace=wrap;html=1;boundedLbl=1;backgroundOutline=1;darkOpacity=0.05;darkOpacity2=0.1;size=20;rotation=90;fillColor=#1ba1e2;strokeColor=#006EAF;fontColor=#ffffff;" parent="1" vertex="1">
          <mxGeometry x="311" y="579" width="40" height="40" as="geometry" />
        </mxCell>
        <mxCell id="qb8SzJnQ2sGDi6gfCLAQ-125" value="" style="shape=cube;whiteSpace=wrap;html=1;boundedLbl=1;backgroundOutline=1;darkOpacity=0.05;darkOpacity2=0.1;size=20;rotation=90;fillColor=#1ba1e2;strokeColor=#006EAF;fontColor=#ffffff;" parent="1" vertex="1">
          <mxGeometry x="331" y="579" width="40" height="40" as="geometry" />
        </mxCell>
        <mxCell id="qb8SzJnQ2sGDi6gfCLAQ-126" value="" style="shape=cube;whiteSpace=wrap;html=1;boundedLbl=1;backgroundOutline=1;darkOpacity=0.05;darkOpacity2=0.1;size=20;rotation=90;fillColor=#1ba1e2;strokeColor=#006EAF;fontColor=#ffffff;" parent="1" vertex="1">
          <mxGeometry x="230.5" y="559" width="40" height="40" as="geometry" />
        </mxCell>
        <mxCell id="qb8SzJnQ2sGDi6gfCLAQ-127" value="" style="shape=cube;whiteSpace=wrap;html=1;boundedLbl=1;backgroundOutline=1;darkOpacity=0.05;darkOpacity2=0.1;size=20;rotation=90;fillColor=#1ba1e2;strokeColor=#006EAF;fontColor=#ffffff;" parent="1" vertex="1">
          <mxGeometry x="250.5" y="559" width="40" height="40" as="geometry" />
        </mxCell>
        <mxCell id="qb8SzJnQ2sGDi6gfCLAQ-128" value="" style="shape=cube;whiteSpace=wrap;html=1;boundedLbl=1;backgroundOutline=1;darkOpacity=0.05;darkOpacity2=0.1;size=20;rotation=90;fillColor=#1ba1e2;strokeColor=#006EAF;fontColor=#ffffff;" parent="1" vertex="1">
          <mxGeometry x="270.5" y="559" width="40" height="40" as="geometry" />
        </mxCell>
        <mxCell id="qb8SzJnQ2sGDi6gfCLAQ-129" value="" style="shape=cube;whiteSpace=wrap;html=1;boundedLbl=1;backgroundOutline=1;darkOpacity=0.05;darkOpacity2=0.1;size=20;rotation=90;fillColor=#1ba1e2;strokeColor=#006EAF;fontColor=#ffffff;" parent="1" vertex="1">
          <mxGeometry x="290.5" y="559" width="40" height="40" as="geometry" />
        </mxCell>
        <mxCell id="qb8SzJnQ2sGDi6gfCLAQ-130" value="" style="shape=cube;whiteSpace=wrap;html=1;boundedLbl=1;backgroundOutline=1;darkOpacity=0.05;darkOpacity2=0.1;size=20;rotation=90;fillColor=#1ba1e2;strokeColor=#006EAF;fontColor=#ffffff;" parent="1" vertex="1">
          <mxGeometry x="310.5" y="559" width="40" height="40" as="geometry" />
        </mxCell>
        <mxCell id="qb8SzJnQ2sGDi6gfCLAQ-131" value="" style="shape=cube;whiteSpace=wrap;html=1;boundedLbl=1;backgroundOutline=1;darkOpacity=0.05;darkOpacity2=0.1;size=20;rotation=90;fillColor=#1ba1e2;strokeColor=#006EAF;fontColor=#ffffff;" parent="1" vertex="1">
          <mxGeometry x="330.5" y="559" width="40" height="40" as="geometry" />
        </mxCell>
        <mxCell id="qb8SzJnQ2sGDi6gfCLAQ-132" value="" style="endArrow=classic;startArrow=classic;html=1;rounded=0;fontSize=18;" parent="1" edge="1">
          <mxGeometry width="50" height="50" relative="1" as="geometry">
            <mxPoint x="619.5" y="579" as="sourcePoint" />
            <mxPoint x="659.5" y="539" as="targetPoint" />
          </mxGeometry>
        </mxCell>
        <mxCell id="qb8SzJnQ2sGDi6gfCLAQ-133" value="" style="shape=cube;whiteSpace=wrap;html=1;boundedLbl=1;backgroundOutline=1;darkOpacity=0.05;darkOpacity2=0.1;size=20;rotation=90;fillColor=#1ba1e2;strokeColor=#006EAF;fontColor=#ffffff;" parent="1" vertex="1">
          <mxGeometry x="655.5" y="600" width="40" height="40" as="geometry" />
        </mxCell>
        <mxCell id="qb8SzJnQ2sGDi6gfCLAQ-134" value="" style="shape=cube;whiteSpace=wrap;html=1;boundedLbl=1;backgroundOutline=1;darkOpacity=0.05;darkOpacity2=0.1;size=20;rotation=90;fillColor=#1ba1e2;strokeColor=#006EAF;fontColor=#ffffff;" parent="1" vertex="1">
          <mxGeometry x="675.5" y="600" width="40" height="40" as="geometry" />
        </mxCell>
        <mxCell id="qb8SzJnQ2sGDi6gfCLAQ-135" value="" style="shape=cube;whiteSpace=wrap;html=1;boundedLbl=1;backgroundOutline=1;darkOpacity=0.05;darkOpacity2=0.1;size=20;rotation=90;fillColor=#1ba1e2;strokeColor=#006EAF;fontColor=#ffffff;" parent="1" vertex="1">
          <mxGeometry x="695.5" y="600" width="40" height="40" as="geometry" />
        </mxCell>
        <mxCell id="qb8SzJnQ2sGDi6gfCLAQ-136" value="" style="shape=cube;whiteSpace=wrap;html=1;boundedLbl=1;backgroundOutline=1;darkOpacity=0.05;darkOpacity2=0.1;size=20;rotation=90;fillColor=#1ba1e2;strokeColor=#006EAF;fontColor=#ffffff;" parent="1" vertex="1">
          <mxGeometry x="715.5" y="600" width="40" height="40" as="geometry" />
        </mxCell>
        <mxCell id="qb8SzJnQ2sGDi6gfCLAQ-137" value="" style="shape=cube;whiteSpace=wrap;html=1;boundedLbl=1;backgroundOutline=1;darkOpacity=0.05;darkOpacity2=0.1;size=20;rotation=90;fillColor=#1ba1e2;strokeColor=#006EAF;fontColor=#ffffff;" parent="1" vertex="1">
          <mxGeometry x="735.5" y="600" width="40" height="40" as="geometry" />
        </mxCell>
        <mxCell id="qb8SzJnQ2sGDi6gfCLAQ-138" value="" style="shape=cube;whiteSpace=wrap;html=1;boundedLbl=1;backgroundOutline=1;darkOpacity=0.05;darkOpacity2=0.1;size=20;rotation=90;fillColor=#1ba1e2;strokeColor=#006EAF;fontColor=#ffffff;" parent="1" vertex="1">
          <mxGeometry x="755.5" y="600" width="40" height="40" as="geometry" />
        </mxCell>
        <mxCell id="qb8SzJnQ2sGDi6gfCLAQ-139" value="" style="shape=cube;whiteSpace=wrap;html=1;boundedLbl=1;backgroundOutline=1;darkOpacity=0.05;darkOpacity2=0.1;size=20;rotation=90;fillColor=#1ba1e2;strokeColor=#006EAF;fontColor=#ffffff;" parent="1" vertex="1">
          <mxGeometry x="655" y="580" width="40" height="40" as="geometry" />
        </mxCell>
        <mxCell id="qb8SzJnQ2sGDi6gfCLAQ-140" value="" style="shape=cube;whiteSpace=wrap;html=1;boundedLbl=1;backgroundOutline=1;darkOpacity=0.05;darkOpacity2=0.1;size=20;rotation=90;fillColor=#1ba1e2;strokeColor=#006EAF;fontColor=#ffffff;" parent="1" vertex="1">
          <mxGeometry x="675" y="580" width="40" height="40" as="geometry" />
        </mxCell>
        <mxCell id="qb8SzJnQ2sGDi6gfCLAQ-141" value="" style="shape=cube;whiteSpace=wrap;html=1;boundedLbl=1;backgroundOutline=1;darkOpacity=0.05;darkOpacity2=0.1;size=20;rotation=90;fillColor=#1ba1e2;strokeColor=#006EAF;fontColor=#ffffff;" parent="1" vertex="1">
          <mxGeometry x="695" y="580" width="40" height="40" as="geometry" />
        </mxCell>
        <mxCell id="qb8SzJnQ2sGDi6gfCLAQ-142" value="" style="shape=cube;whiteSpace=wrap;html=1;boundedLbl=1;backgroundOutline=1;darkOpacity=0.05;darkOpacity2=0.1;size=20;rotation=90;fillColor=#1ba1e2;strokeColor=#006EAF;fontColor=#ffffff;" parent="1" vertex="1">
          <mxGeometry x="715" y="580" width="40" height="40" as="geometry" />
        </mxCell>
        <mxCell id="qb8SzJnQ2sGDi6gfCLAQ-143" value="" style="shape=cube;whiteSpace=wrap;html=1;boundedLbl=1;backgroundOutline=1;darkOpacity=0.05;darkOpacity2=0.1;size=20;rotation=90;fillColor=#1ba1e2;strokeColor=#006EAF;fontColor=#ffffff;" parent="1" vertex="1">
          <mxGeometry x="735" y="580" width="40" height="40" as="geometry" />
        </mxCell>
        <mxCell id="qb8SzJnQ2sGDi6gfCLAQ-144" value="" style="shape=cube;whiteSpace=wrap;html=1;boundedLbl=1;backgroundOutline=1;darkOpacity=0.05;darkOpacity2=0.1;size=20;rotation=90;fillColor=#1ba1e2;strokeColor=#006EAF;fontColor=#ffffff;" parent="1" vertex="1">
          <mxGeometry x="755" y="580" width="40" height="40" as="geometry" />
        </mxCell>
        <mxCell id="qb8SzJnQ2sGDi6gfCLAQ-145" value="" style="shape=cube;whiteSpace=wrap;html=1;boundedLbl=1;backgroundOutline=1;darkOpacity=0.05;darkOpacity2=0.1;size=20;rotation=90;fillColor=#1ba1e2;strokeColor=#006EAF;fontColor=#ffffff;" parent="1" vertex="1">
          <mxGeometry x="655" y="560" width="40" height="40" as="geometry" />
        </mxCell>
        <mxCell id="qb8SzJnQ2sGDi6gfCLAQ-146" value="" style="shape=cube;whiteSpace=wrap;html=1;boundedLbl=1;backgroundOutline=1;darkOpacity=0.05;darkOpacity2=0.1;size=20;rotation=90;fillColor=#1ba1e2;strokeColor=#006EAF;fontColor=#ffffff;" parent="1" vertex="1">
          <mxGeometry x="675" y="560" width="40" height="40" as="geometry" />
        </mxCell>
        <mxCell id="qb8SzJnQ2sGDi6gfCLAQ-147" value="" style="shape=cube;whiteSpace=wrap;html=1;boundedLbl=1;backgroundOutline=1;darkOpacity=0.05;darkOpacity2=0.1;size=20;rotation=90;fillColor=#1ba1e2;strokeColor=#006EAF;fontColor=#ffffff;" parent="1" vertex="1">
          <mxGeometry x="695" y="560" width="40" height="40" as="geometry" />
        </mxCell>
        <mxCell id="qb8SzJnQ2sGDi6gfCLAQ-148" value="" style="shape=cube;whiteSpace=wrap;html=1;boundedLbl=1;backgroundOutline=1;darkOpacity=0.05;darkOpacity2=0.1;size=20;rotation=90;fillColor=#1ba1e2;strokeColor=#006EAF;fontColor=#ffffff;" parent="1" vertex="1">
          <mxGeometry x="715" y="560" width="40" height="40" as="geometry" />
        </mxCell>
        <mxCell id="qb8SzJnQ2sGDi6gfCLAQ-149" value="" style="shape=cube;whiteSpace=wrap;html=1;boundedLbl=1;backgroundOutline=1;darkOpacity=0.05;darkOpacity2=0.1;size=20;rotation=90;fillColor=#1ba1e2;strokeColor=#006EAF;fontColor=#ffffff;" parent="1" vertex="1">
          <mxGeometry x="735" y="560" width="40" height="40" as="geometry" />
        </mxCell>
        <mxCell id="qb8SzJnQ2sGDi6gfCLAQ-150" value="" style="shape=cube;whiteSpace=wrap;html=1;boundedLbl=1;backgroundOutline=1;darkOpacity=0.05;darkOpacity2=0.1;size=20;rotation=90;fillColor=#1ba1e2;strokeColor=#006EAF;fontColor=#ffffff;" parent="1" vertex="1">
          <mxGeometry x="755" y="560" width="40" height="40" as="geometry" />
        </mxCell>
        <mxCell id="qb8SzJnQ2sGDi6gfCLAQ-151" value="" style="shape=cube;whiteSpace=wrap;html=1;boundedLbl=1;backgroundOutline=1;darkOpacity=0.05;darkOpacity2=0.1;size=20;rotation=90;fillColor=#1ba1e2;strokeColor=#006EAF;fontColor=#ffffff;" parent="1" vertex="1">
          <mxGeometry x="655.5" y="541" width="40" height="40" as="geometry" />
        </mxCell>
        <mxCell id="qb8SzJnQ2sGDi6gfCLAQ-152" value="" style="shape=cube;whiteSpace=wrap;html=1;boundedLbl=1;backgroundOutline=1;darkOpacity=0.05;darkOpacity2=0.1;size=20;rotation=90;fillColor=#1ba1e2;strokeColor=#006EAF;fontColor=#ffffff;" parent="1" vertex="1">
          <mxGeometry x="675.5" y="541" width="40" height="40" as="geometry" />
        </mxCell>
        <mxCell id="qb8SzJnQ2sGDi6gfCLAQ-153" value="" style="shape=cube;whiteSpace=wrap;html=1;boundedLbl=1;backgroundOutline=1;darkOpacity=0.05;darkOpacity2=0.1;size=20;rotation=90;fillColor=#1ba1e2;strokeColor=#006EAF;fontColor=#ffffff;" parent="1" vertex="1">
          <mxGeometry x="695.5" y="541" width="40" height="40" as="geometry" />
        </mxCell>
        <mxCell id="qb8SzJnQ2sGDi6gfCLAQ-154" value="" style="shape=cube;whiteSpace=wrap;html=1;boundedLbl=1;backgroundOutline=1;darkOpacity=0.05;darkOpacity2=0.1;size=20;rotation=90;fillColor=#1ba1e2;strokeColor=#006EAF;fontColor=#ffffff;" parent="1" vertex="1">
          <mxGeometry x="715.5" y="541" width="40" height="40" as="geometry" />
        </mxCell>
        <mxCell id="qb8SzJnQ2sGDi6gfCLAQ-155" value="" style="shape=cube;whiteSpace=wrap;html=1;boundedLbl=1;backgroundOutline=1;darkOpacity=0.05;darkOpacity2=0.1;size=20;rotation=90;fillColor=#1ba1e2;strokeColor=#006EAF;fontColor=#ffffff;" parent="1" vertex="1">
          <mxGeometry x="735.5" y="541" width="40" height="40" as="geometry" />
        </mxCell>
        <mxCell id="qb8SzJnQ2sGDi6gfCLAQ-156" value="" style="shape=cube;whiteSpace=wrap;html=1;boundedLbl=1;backgroundOutline=1;darkOpacity=0.05;darkOpacity2=0.1;size=20;rotation=90;fillColor=#1ba1e2;strokeColor=#006EAF;fontColor=#ffffff;" parent="1" vertex="1">
          <mxGeometry x="755.5" y="541" width="40" height="40" as="geometry" />
        </mxCell>
        <mxCell id="qb8SzJnQ2sGDi6gfCLAQ-157" value="" style="shape=cube;whiteSpace=wrap;html=1;boundedLbl=1;backgroundOutline=1;darkOpacity=0.05;darkOpacity2=0.1;size=20;rotation=90;fillColor=#1ba1e2;strokeColor=#006EAF;fontColor=#ffffff;" parent="1" vertex="1">
          <mxGeometry x="637" y="620" width="40" height="40" as="geometry" />
        </mxCell>
        <mxCell id="qb8SzJnQ2sGDi6gfCLAQ-158" value="" style="shape=cube;whiteSpace=wrap;html=1;boundedLbl=1;backgroundOutline=1;darkOpacity=0.05;darkOpacity2=0.1;size=20;rotation=90;fillColor=#1ba1e2;strokeColor=#006EAF;fontColor=#ffffff;" parent="1" vertex="1">
          <mxGeometry x="657" y="620" width="40" height="40" as="geometry" />
        </mxCell>
        <mxCell id="qb8SzJnQ2sGDi6gfCLAQ-159" value="" style="shape=cube;whiteSpace=wrap;html=1;boundedLbl=1;backgroundOutline=1;darkOpacity=0.05;darkOpacity2=0.1;size=20;rotation=90;fillColor=#1ba1e2;strokeColor=#006EAF;fontColor=#ffffff;" parent="1" vertex="1">
          <mxGeometry x="677" y="620" width="40" height="40" as="geometry" />
        </mxCell>
        <mxCell id="qb8SzJnQ2sGDi6gfCLAQ-160" value="" style="shape=cube;whiteSpace=wrap;html=1;boundedLbl=1;backgroundOutline=1;darkOpacity=0.05;darkOpacity2=0.1;size=20;rotation=90;fillColor=#1ba1e2;strokeColor=#006EAF;fontColor=#ffffff;" parent="1" vertex="1">
          <mxGeometry x="697" y="620" width="40" height="40" as="geometry" />
        </mxCell>
        <mxCell id="qb8SzJnQ2sGDi6gfCLAQ-161" value="" style="shape=cube;whiteSpace=wrap;html=1;boundedLbl=1;backgroundOutline=1;darkOpacity=0.05;darkOpacity2=0.1;size=20;rotation=90;fillColor=#1ba1e2;strokeColor=#006EAF;fontColor=#ffffff;" parent="1" vertex="1">
          <mxGeometry x="717" y="620" width="40" height="40" as="geometry" />
        </mxCell>
        <mxCell id="qb8SzJnQ2sGDi6gfCLAQ-162" value="" style="shape=cube;whiteSpace=wrap;html=1;boundedLbl=1;backgroundOutline=1;darkOpacity=0.05;darkOpacity2=0.1;size=20;rotation=90;fillColor=#1ba1e2;strokeColor=#006EAF;fontColor=#ffffff;" parent="1" vertex="1">
          <mxGeometry x="737" y="620" width="40" height="40" as="geometry" />
        </mxCell>
        <mxCell id="qb8SzJnQ2sGDi6gfCLAQ-163" value="" style="shape=cube;whiteSpace=wrap;html=1;boundedLbl=1;backgroundOutline=1;darkOpacity=0.05;darkOpacity2=0.1;size=20;rotation=90;fillColor=#1ba1e2;strokeColor=#006EAF;fontColor=#ffffff;" parent="1" vertex="1">
          <mxGeometry x="636.5" y="600" width="40" height="40" as="geometry" />
        </mxCell>
        <mxCell id="qb8SzJnQ2sGDi6gfCLAQ-164" value="" style="shape=cube;whiteSpace=wrap;html=1;boundedLbl=1;backgroundOutline=1;darkOpacity=0.05;darkOpacity2=0.1;size=20;rotation=90;fillColor=#1ba1e2;strokeColor=#006EAF;fontColor=#ffffff;" parent="1" vertex="1">
          <mxGeometry x="656.5" y="600" width="40" height="40" as="geometry" />
        </mxCell>
        <mxCell id="qb8SzJnQ2sGDi6gfCLAQ-165" value="" style="shape=cube;whiteSpace=wrap;html=1;boundedLbl=1;backgroundOutline=1;darkOpacity=0.05;darkOpacity2=0.1;size=20;rotation=90;fillColor=#1ba1e2;strokeColor=#006EAF;fontColor=#ffffff;" parent="1" vertex="1">
          <mxGeometry x="676.5" y="600" width="40" height="40" as="geometry" />
        </mxCell>
        <mxCell id="qb8SzJnQ2sGDi6gfCLAQ-166" value="" style="shape=cube;whiteSpace=wrap;html=1;boundedLbl=1;backgroundOutline=1;darkOpacity=0.05;darkOpacity2=0.1;size=20;rotation=90;fillColor=#1ba1e2;strokeColor=#006EAF;fontColor=#ffffff;" parent="1" vertex="1">
          <mxGeometry x="696.5" y="600" width="40" height="40" as="geometry" />
        </mxCell>
        <mxCell id="qb8SzJnQ2sGDi6gfCLAQ-167" value="" style="shape=cube;whiteSpace=wrap;html=1;boundedLbl=1;backgroundOutline=1;darkOpacity=0.05;darkOpacity2=0.1;size=20;rotation=90;fillColor=#1ba1e2;strokeColor=#006EAF;fontColor=#ffffff;" parent="1" vertex="1">
          <mxGeometry x="716.5" y="600" width="40" height="40" as="geometry" />
        </mxCell>
        <mxCell id="qb8SzJnQ2sGDi6gfCLAQ-168" value="" style="shape=cube;whiteSpace=wrap;html=1;boundedLbl=1;backgroundOutline=1;darkOpacity=0.05;darkOpacity2=0.1;size=20;rotation=90;fillColor=#1ba1e2;strokeColor=#006EAF;fontColor=#ffffff;" parent="1" vertex="1">
          <mxGeometry x="736.5" y="600" width="40" height="40" as="geometry" />
        </mxCell>
        <mxCell id="qb8SzJnQ2sGDi6gfCLAQ-169" value="" style="shape=cube;whiteSpace=wrap;html=1;boundedLbl=1;backgroundOutline=1;darkOpacity=0.05;darkOpacity2=0.1;size=20;rotation=90;fillColor=#1ba1e2;strokeColor=#006EAF;fontColor=#ffffff;" parent="1" vertex="1">
          <mxGeometry x="636.5" y="580" width="40" height="40" as="geometry" />
        </mxCell>
        <mxCell id="qb8SzJnQ2sGDi6gfCLAQ-170" value="" style="shape=cube;whiteSpace=wrap;html=1;boundedLbl=1;backgroundOutline=1;darkOpacity=0.05;darkOpacity2=0.1;size=20;rotation=90;fillColor=#1ba1e2;strokeColor=#006EAF;fontColor=#ffffff;" parent="1" vertex="1">
          <mxGeometry x="656.5" y="580" width="40" height="40" as="geometry" />
        </mxCell>
        <mxCell id="qb8SzJnQ2sGDi6gfCLAQ-171" value="" style="shape=cube;whiteSpace=wrap;html=1;boundedLbl=1;backgroundOutline=1;darkOpacity=0.05;darkOpacity2=0.1;size=20;rotation=90;fillColor=#1ba1e2;strokeColor=#006EAF;fontColor=#ffffff;" parent="1" vertex="1">
          <mxGeometry x="676.5" y="580" width="40" height="40" as="geometry" />
        </mxCell>
        <mxCell id="qb8SzJnQ2sGDi6gfCLAQ-172" value="" style="shape=cube;whiteSpace=wrap;html=1;boundedLbl=1;backgroundOutline=1;darkOpacity=0.05;darkOpacity2=0.1;size=20;rotation=90;fillColor=#1ba1e2;strokeColor=#006EAF;fontColor=#ffffff;" parent="1" vertex="1">
          <mxGeometry x="696.5" y="580" width="40" height="40" as="geometry" />
        </mxCell>
        <mxCell id="qb8SzJnQ2sGDi6gfCLAQ-173" value="" style="shape=cube;whiteSpace=wrap;html=1;boundedLbl=1;backgroundOutline=1;darkOpacity=0.05;darkOpacity2=0.1;size=20;rotation=90;fillColor=#1ba1e2;strokeColor=#006EAF;fontColor=#ffffff;" parent="1" vertex="1">
          <mxGeometry x="716.5" y="580" width="40" height="40" as="geometry" />
        </mxCell>
        <mxCell id="qb8SzJnQ2sGDi6gfCLAQ-174" value="" style="shape=cube;whiteSpace=wrap;html=1;boundedLbl=1;backgroundOutline=1;darkOpacity=0.05;darkOpacity2=0.1;size=20;rotation=90;fillColor=#1ba1e2;strokeColor=#006EAF;fontColor=#ffffff;" parent="1" vertex="1">
          <mxGeometry x="736.5" y="580" width="40" height="40" as="geometry" />
        </mxCell>
        <mxCell id="qb8SzJnQ2sGDi6gfCLAQ-175" value="" style="shape=cube;whiteSpace=wrap;html=1;boundedLbl=1;backgroundOutline=1;darkOpacity=0.05;darkOpacity2=0.1;size=20;rotation=90;fillColor=#1ba1e2;strokeColor=#006EAF;fontColor=#ffffff;" parent="1" vertex="1">
          <mxGeometry x="636" y="560" width="40" height="40" as="geometry" />
        </mxCell>
        <mxCell id="qb8SzJnQ2sGDi6gfCLAQ-176" value="" style="shape=cube;whiteSpace=wrap;html=1;boundedLbl=1;backgroundOutline=1;darkOpacity=0.05;darkOpacity2=0.1;size=20;rotation=90;fillColor=#1ba1e2;strokeColor=#006EAF;fontColor=#ffffff;" parent="1" vertex="1">
          <mxGeometry x="656" y="560" width="40" height="40" as="geometry" />
        </mxCell>
        <mxCell id="qb8SzJnQ2sGDi6gfCLAQ-177" value="" style="shape=cube;whiteSpace=wrap;html=1;boundedLbl=1;backgroundOutline=1;darkOpacity=0.05;darkOpacity2=0.1;size=20;rotation=90;fillColor=#1ba1e2;strokeColor=#006EAF;fontColor=#ffffff;" parent="1" vertex="1">
          <mxGeometry x="676" y="560" width="40" height="40" as="geometry" />
        </mxCell>
        <mxCell id="qb8SzJnQ2sGDi6gfCLAQ-178" value="" style="shape=cube;whiteSpace=wrap;html=1;boundedLbl=1;backgroundOutline=1;darkOpacity=0.05;darkOpacity2=0.1;size=20;rotation=90;fillColor=#1ba1e2;strokeColor=#006EAF;fontColor=#ffffff;" parent="1" vertex="1">
          <mxGeometry x="696" y="560" width="40" height="40" as="geometry" />
        </mxCell>
        <mxCell id="qb8SzJnQ2sGDi6gfCLAQ-179" value="" style="shape=cube;whiteSpace=wrap;html=1;boundedLbl=1;backgroundOutline=1;darkOpacity=0.05;darkOpacity2=0.1;size=20;rotation=90;fillColor=#1ba1e2;strokeColor=#006EAF;fontColor=#ffffff;" parent="1" vertex="1">
          <mxGeometry x="716" y="560" width="40" height="40" as="geometry" />
        </mxCell>
        <mxCell id="qb8SzJnQ2sGDi6gfCLAQ-180" value="" style="shape=cube;whiteSpace=wrap;html=1;boundedLbl=1;backgroundOutline=1;darkOpacity=0.05;darkOpacity2=0.1;size=20;rotation=90;fillColor=#1ba1e2;strokeColor=#006EAF;fontColor=#ffffff;" parent="1" vertex="1">
          <mxGeometry x="736" y="560" width="40" height="40" as="geometry" />
        </mxCell>
        <mxCell id="qb8SzJnQ2sGDi6gfCLAQ-181" value="" style="endArrow=classic;startArrow=classic;html=1;rounded=0;fontSize=18;" parent="1" edge="1">
          <mxGeometry width="50" height="50" relative="1" as="geometry">
            <mxPoint x="220" y="654" as="sourcePoint" />
            <mxPoint x="220.5" y="584" as="targetPoint" />
          </mxGeometry>
        </mxCell>
        <mxCell id="qb8SzJnQ2sGDi6gfCLAQ-182" value="" style="endArrow=classic;startArrow=classic;html=1;rounded=0;fontSize=18;" parent="1" edge="1">
          <mxGeometry width="50" height="50" relative="1" as="geometry">
            <mxPoint x="686.5" y="529.5" as="sourcePoint" />
            <mxPoint x="783.5" y="529.5" as="targetPoint" />
          </mxGeometry>
        </mxCell>
        <mxCell id="qb8SzJnQ2sGDi6gfCLAQ-183" value="&lt;font style=&quot;font-size: 18px&quot;&gt;HMHA&lt;/font&gt;" style="text;html=1;align=center;verticalAlign=middle;resizable=0;points=[];autosize=1;strokeColor=none;fillColor=none;" parent="1" vertex="1">
          <mxGeometry x="542.5" y="520" width="70" height="20" as="geometry" />
        </mxCell>
        <mxCell id="qb8SzJnQ2sGDi6gfCLAQ-184" value="" style="shape=cube;whiteSpace=wrap;html=1;boundedLbl=1;backgroundOutline=1;darkOpacity=0.05;darkOpacity2=0.1;fontSize=18;" parent="1" vertex="1">
          <mxGeometry x="70" y="-400" width="49.5" height="130" as="geometry" />
        </mxCell>
        <mxCell id="qb8SzJnQ2sGDi6gfCLAQ-187" value="" style="shape=cube;whiteSpace=wrap;html=1;boundedLbl=1;backgroundOutline=1;darkOpacity=0.05;darkOpacity2=0.1;fontSize=18;fillColor=#dae8fc;strokeColor=#6c8ebf;" parent="1" vertex="1">
          <mxGeometry x="176" y="-396" width="30" height="130" as="geometry" />
        </mxCell>
        <mxCell id="qb8SzJnQ2sGDi6gfCLAQ-188" value="" style="shape=cube;whiteSpace=wrap;html=1;boundedLbl=1;backgroundOutline=1;darkOpacity=0.05;darkOpacity2=0.1;fontSize=18;fillColor=#dae8fc;strokeColor=#6c8ebf;" parent="1" vertex="1">
          <mxGeometry x="236.25" y="-372" width="31.5" height="100" as="geometry" />
        </mxCell>
        <mxCell id="qb8SzJnQ2sGDi6gfCLAQ-189" value="" style="shape=cube;whiteSpace=wrap;html=1;boundedLbl=1;backgroundOutline=1;darkOpacity=0.05;darkOpacity2=0.1;fontSize=18;fillColor=#dae8fc;strokeColor=#6c8ebf;" parent="1" vertex="1">
          <mxGeometry x="297.5" y="-355" width="34.5" height="85" as="geometry" />
        </mxCell>
        <mxCell id="qb8SzJnQ2sGDi6gfCLAQ-191" value="" style="shape=cube;whiteSpace=wrap;html=1;boundedLbl=1;backgroundOutline=1;darkOpacity=0.05;darkOpacity2=0.1;fontSize=18;fillColor=#dae8fc;strokeColor=#6c8ebf;" parent="1" vertex="1">
          <mxGeometry x="342.5" y="-332" width="34" height="65" as="geometry" />
        </mxCell>
        <mxCell id="qb8SzJnQ2sGDi6gfCLAQ-192" value="" style="shape=cube;whiteSpace=wrap;html=1;boundedLbl=1;backgroundOutline=1;darkOpacity=0.05;darkOpacity2=0.1;fontSize=18;fillColor=#ffcc99;strokeColor=#36393d;" parent="1" vertex="1">
          <mxGeometry x="158" y="-238" width="30" height="130" as="geometry" />
        </mxCell>
        <mxCell id="qb8SzJnQ2sGDi6gfCLAQ-193" value="" style="shape=cube;whiteSpace=wrap;html=1;boundedLbl=1;backgroundOutline=1;darkOpacity=0.05;darkOpacity2=0.1;fontSize=18;fillColor=#ffcc99;strokeColor=#36393d;" parent="1" vertex="1">
          <mxGeometry x="216.25" y="-210" width="31.5" height="100" as="geometry" />
        </mxCell>
        <mxCell id="qb8SzJnQ2sGDi6gfCLAQ-194" value="" style="shape=cube;whiteSpace=wrap;html=1;boundedLbl=1;backgroundOutline=1;darkOpacity=0.05;darkOpacity2=0.1;fontSize=18;fillColor=#ffcc99;strokeColor=#36393d;" parent="1" vertex="1">
          <mxGeometry x="274.5" y="-193" width="34.5" height="85" as="geometry" />
        </mxCell>
        <mxCell id="qb8SzJnQ2sGDi6gfCLAQ-195" value="" style="shape=cube;whiteSpace=wrap;html=1;boundedLbl=1;backgroundOutline=1;darkOpacity=0.05;darkOpacity2=0.1;fontSize=18;fillColor=#ffcc99;strokeColor=#36393d;" parent="1" vertex="1">
          <mxGeometry x="329.5" y="-170" width="34" height="65" as="geometry" />
        </mxCell>
        <mxCell id="qb8SzJnQ2sGDi6gfCLAQ-196" value="" style="endArrow=classic;html=1;rounded=0;fontSize=18;strokeWidth=2;" parent="1" edge="1">
          <mxGeometry width="50" height="50" relative="1" as="geometry">
            <mxPoint x="380.5" y="-133" as="sourcePoint" />
            <mxPoint x="440" y="-270" as="targetPoint" />
            <Array as="points">
              <mxPoint x="440" y="-133" />
            </Array>
          </mxGeometry>
        </mxCell>
        <mxCell id="qb8SzJnQ2sGDi6gfCLAQ-198" value="&lt;b&gt;&lt;font face=&quot;Times New Roman&quot;&gt;Multi Encoder&lt;/font&gt;&lt;/b&gt;" style="text;html=1;align=center;verticalAlign=middle;resizable=0;points=[];autosize=1;strokeColor=none;fillColor=none;fontSize=18;" parent="1" vertex="1">
          <mxGeometry x="150" y="-83" width="130" height="30" as="geometry" />
        </mxCell>
        <mxCell id="qb8SzJnQ2sGDi6gfCLAQ-199" value="&lt;b&gt;&lt;font face=&quot;Times New Roman&quot;&gt;Multi Modal Spatial Fusion Module&lt;/font&gt;&lt;/b&gt;" style="rounded=1;whiteSpace=wrap;html=1;fontSize=18;" parent="1" vertex="1">
          <mxGeometry x="543" y="-327" width="180" height="75" as="geometry" />
        </mxCell>
        <mxCell id="qb8SzJnQ2sGDi6gfCLAQ-201" value="" style="shape=cube;whiteSpace=wrap;html=1;boundedLbl=1;backgroundOutline=1;darkOpacity=0.05;darkOpacity2=0.1;fontSize=18;fillColor=#fff2cc;strokeColor=#d6b656;direction=east;" parent="1" vertex="1">
          <mxGeometry x="931.75" y="-383" width="30" height="130" as="geometry" />
        </mxCell>
        <mxCell id="qb8SzJnQ2sGDi6gfCLAQ-202" value="" style="shape=cube;whiteSpace=wrap;html=1;boundedLbl=1;backgroundOutline=1;darkOpacity=0.05;darkOpacity2=0.1;fontSize=18;fillColor=#fff2cc;strokeColor=#d6b656;direction=east;" parent="1" vertex="1">
          <mxGeometry x="883.75" y="-351" width="31.5" height="100" as="geometry" />
        </mxCell>
        <mxCell id="qb8SzJnQ2sGDi6gfCLAQ-203" value="" style="shape=cube;whiteSpace=wrap;html=1;boundedLbl=1;backgroundOutline=1;darkOpacity=0.05;darkOpacity2=0.1;fontSize=18;fillColor=#fff2cc;strokeColor=#d6b656;direction=east;" parent="1" vertex="1">
          <mxGeometry x="825.25" y="-329.5" width="34.5" height="85" as="geometry" />
        </mxCell>
        <mxCell id="qb8SzJnQ2sGDi6gfCLAQ-204" value="" style="shape=cube;whiteSpace=wrap;html=1;boundedLbl=1;backgroundOutline=1;darkOpacity=0.05;darkOpacity2=0.1;fontSize=18;fillColor=#dae8fc;strokeColor=#6c8ebf;direction=east;" parent="1" vertex="1">
          <mxGeometry x="761.75" y="-318" width="34" height="65" as="geometry" />
        </mxCell>
        <mxCell id="qb8SzJnQ2sGDi6gfCLAQ-205" value="&lt;b&gt;&lt;font face=&quot;Times New Roman&quot;&gt;Decoder&lt;/font&gt;&lt;/b&gt;" style="text;html=1;align=center;verticalAlign=middle;resizable=0;points=[];autosize=1;strokeColor=none;fillColor=none;fontSize=18;" parent="1" vertex="1">
          <mxGeometry x="838.75" y="-235" width="80" height="30" as="geometry" />
        </mxCell>
        <mxCell id="qb8SzJnQ2sGDi6gfCLAQ-211" value="Add &amp;amp; Norm" style="rounded=1;whiteSpace=wrap;html=1;align=center;horizontal=0;rotation=-180;fontFamily=Times New Roman;fontSize=15;" parent="1" vertex="1">
          <mxGeometry x="768.13" y="-63" width="39.25" height="90" as="geometry" />
        </mxCell>
        <mxCell id="qb8SzJnQ2sGDi6gfCLAQ-213" value="&lt;font style=&quot;font-size: 15px&quot;&gt;HMHA&lt;/font&gt;" style="rounded=1;whiteSpace=wrap;html=1;align=center;horizontal=0;rotation=-180;fillColor=#fff2cc;strokeColor=#d6b656;fontFamily=Times New Roman;fontSize=15;fontColor=#000000;fontStyle=1" parent="1" vertex="1">
          <mxGeometry x="694.63" y="118.5" width="39.25" height="90" as="geometry" />
        </mxCell>
        <mxCell id="qb8SzJnQ2sGDi6gfCLAQ-214" value="" style="endArrow=classic;html=1;" parent="1" edge="1">
          <mxGeometry width="50" height="50" relative="1" as="geometry">
            <mxPoint x="736.13" y="159.5" as="sourcePoint" />
            <mxPoint x="766.13" y="159.5" as="targetPoint" />
          </mxGeometry>
        </mxCell>
        <mxCell id="qb8SzJnQ2sGDi6gfCLAQ-215" value="" style="endArrow=classic;html=1;" parent="1" edge="1">
          <mxGeometry width="50" height="50" relative="1" as="geometry">
            <mxPoint x="809.88" y="159.5" as="sourcePoint" />
            <mxPoint x="839.88" y="159.5" as="targetPoint" />
          </mxGeometry>
        </mxCell>
        <mxCell id="qb8SzJnQ2sGDi6gfCLAQ-216" value="MLP" style="rounded=1;whiteSpace=wrap;html=1;align=center;horizontal=0;rotation=-180;fillColor=#fff2cc;strokeColor=#d6b656;fontFamily=Times New Roman;fontSize=15;" parent="1" vertex="1">
          <mxGeometry x="845.13" y="117.5" width="39.25" height="90" as="geometry" />
        </mxCell>
        <mxCell id="qb8SzJnQ2sGDi6gfCLAQ-217" value="" style="endArrow=classic;html=1;" parent="1" edge="1">
          <mxGeometry width="50" height="50" relative="1" as="geometry">
            <mxPoint x="886.38" y="160.5" as="sourcePoint" />
            <mxPoint x="916.38" y="160.5" as="targetPoint" />
          </mxGeometry>
        </mxCell>
        <mxCell id="qb8SzJnQ2sGDi6gfCLAQ-218" value="Add &amp;amp; Norm" style="rounded=1;whiteSpace=wrap;html=1;align=center;horizontal=0;rotation=-180;fontFamily=Times New Roman;fontSize=15;" parent="1" vertex="1">
          <mxGeometry x="919.13" y="118.5" width="39.25" height="90" as="geometry" />
        </mxCell>
        <mxCell id="qb8SzJnQ2sGDi6gfCLAQ-219" value="Add &amp;amp; Norm" style="rounded=1;whiteSpace=wrap;html=1;align=center;horizontal=0;rotation=-180;fontFamily=Times New Roman;fontSize=15;" parent="1" vertex="1">
          <mxGeometry x="768.13" y="118" width="39.25" height="90" as="geometry" />
        </mxCell>
        <mxCell id="qb8SzJnQ2sGDi6gfCLAQ-221" value="" style="endArrow=classic;html=1;" parent="1" edge="1">
          <mxGeometry width="50" height="50" relative="1" as="geometry">
            <mxPoint x="1090.88" y="66.5" as="sourcePoint" />
            <mxPoint x="1120.88" y="66.5" as="targetPoint" />
          </mxGeometry>
        </mxCell>
        <mxCell id="qb8SzJnQ2sGDi6gfCLAQ-226" value="" style="endArrow=classic;html=1;rounded=0;fontFamily=Times New Roman;fontSize=14;fontColor=#000000;strokeWidth=2;" parent="1" edge="1">
          <mxGeometry width="50" height="50" relative="1" as="geometry">
            <mxPoint x="126.5" y="-321" as="sourcePoint" />
            <mxPoint x="157" y="-321" as="targetPoint" />
          </mxGeometry>
        </mxCell>
        <mxCell id="qb8SzJnQ2sGDi6gfCLAQ-227" value="" style="endArrow=classic;html=1;rounded=0;fontFamily=Times New Roman;fontSize=14;fontColor=#000000;strokeWidth=2;" parent="1" edge="1">
          <mxGeometry width="50" height="50" relative="1" as="geometry">
            <mxPoint x="124.5" y="-160" as="sourcePoint" />
            <mxPoint x="155" y="-160" as="targetPoint" />
          </mxGeometry>
        </mxCell>
        <mxCell id="qb8SzJnQ2sGDi6gfCLAQ-228" value="" style="endArrow=classic;html=1;rounded=0;fontSize=18;strokeWidth=2;" parent="1" edge="1">
          <mxGeometry width="50" height="50" relative="1" as="geometry">
            <mxPoint x="975.25" y="-300.59" as="sourcePoint" />
            <mxPoint x="1015.25" y="-300.59" as="targetPoint" />
          </mxGeometry>
        </mxCell>
        <mxCell id="qb8SzJnQ2sGDi6gfCLAQ-230" value="&lt;font style=&quot;font-size: 18px&quot;&gt;&lt;b&gt;Seg Output&lt;/b&gt;&lt;/font&gt;" style="text;html=1;align=center;verticalAlign=middle;resizable=0;points=[];autosize=1;strokeColor=none;fillColor=none;fontSize=14;fontFamily=Times New Roman;fontColor=#000000;strokeWidth=5;" parent="1" vertex="1">
          <mxGeometry x="1023.25" y="-312.5" width="100" height="20" as="geometry" />
        </mxCell>
        <mxCell id="qb8SzJnQ2sGDi6gfCLAQ-231" value="e&amp;nbsp; &amp;nbsp; a&amp;nbsp; &amp;nbsp; b&amp;nbsp; &amp;nbsp; c&amp;nbsp; &amp;nbsp; b" style="text;html=1;align=center;verticalAlign=middle;resizable=0;points=[];autosize=1;strokeColor=none;fillColor=none;fontSize=30;fontFamily=Times New Roman;fontColor=#000000;" parent="1" vertex="1">
          <mxGeometry x="255" y="780" width="210" height="40" as="geometry" />
        </mxCell>
        <mxCell id="qb8SzJnQ2sGDi6gfCLAQ-232" value="" style="endArrow=classic;html=1;rounded=0;fontFamily=Times New Roman;fontSize=30;fontColor=#000000;strokeWidth=2;" parent="1" edge="1">
          <mxGeometry width="50" height="50" relative="1" as="geometry">
            <mxPoint x="403" y="890" as="sourcePoint" />
            <mxPoint x="403.5" y="830" as="targetPoint" />
          </mxGeometry>
        </mxCell>
        <mxCell id="qb8SzJnQ2sGDi6gfCLAQ-234" value="" style="endArrow=classic;html=1;rounded=0;fontFamily=Times New Roman;fontSize=30;fontColor=#000000;strokeWidth=2;" parent="1" edge="1">
          <mxGeometry width="50" height="50" relative="1" as="geometry">
            <mxPoint x="448.5" y="890" as="sourcePoint" />
            <mxPoint x="449" y="830" as="targetPoint" />
          </mxGeometry>
        </mxCell>
        <mxCell id="qb8SzJnQ2sGDi6gfCLAQ-235" value="start" style="text;html=1;align=center;verticalAlign=middle;resizable=0;points=[];autosize=1;strokeColor=none;fillColor=none;fontSize=24;fontFamily=Times New Roman;fontColor=#000000;" parent="1" vertex="1">
          <mxGeometry x="371" y="888" width="60" height="30" as="geometry" />
        </mxCell>
        <mxCell id="qb8SzJnQ2sGDi6gfCLAQ-236" value="end" style="text;html=1;align=center;verticalAlign=middle;resizable=0;points=[];autosize=1;strokeColor=none;fillColor=none;fontSize=24;fontFamily=Times New Roman;fontColor=#000000;" parent="1" vertex="1">
          <mxGeometry x="426" y="888" width="50" height="30" as="geometry" />
        </mxCell>
        <mxCell id="qb8SzJnQ2sGDi6gfCLAQ-237" value="T1 Modal" style="text;html=1;align=center;verticalAlign=middle;resizable=0;points=[];autosize=1;strokeColor=none;fillColor=none;fontSize=24;fontFamily=Times New Roman;fontColor=#000000;" parent="1" vertex="1">
          <mxGeometry x="-50" y="-345" width="110" height="30" as="geometry" />
        </mxCell>
        <mxCell id="qb8SzJnQ2sGDi6gfCLAQ-238" value="Flair Modal" style="text;html=1;align=center;verticalAlign=middle;resizable=0;points=[];autosize=1;strokeColor=none;fillColor=none;fontSize=24;fontFamily=Times New Roman;fontColor=#000000;" parent="1" vertex="1">
          <mxGeometry x="-66" y="-185" width="130" height="30" as="geometry" />
        </mxCell>
        <mxCell id="qb8SzJnQ2sGDi6gfCLAQ-241" value="" style="endArrow=classic;html=1;" parent="1" edge="1">
          <mxGeometry width="50" height="50" relative="1" as="geometry">
            <mxPoint x="575.63" y="117.5" as="sourcePoint" />
            <mxPoint x="1158" y="117.5" as="targetPoint" />
            <Array as="points">
              <mxPoint x="575.63" y="247.5" />
              <mxPoint x="1158" y="247.5" />
            </Array>
          </mxGeometry>
        </mxCell>
        <mxCell id="qb8SzJnQ2sGDi6gfCLAQ-242" value="&lt;font style=&quot;font-size: 16px&quot;&gt;&lt;b&gt;CPC Score&lt;/b&gt;&lt;/font&gt;" style="text;html=1;align=center;verticalAlign=middle;resizable=0;points=[];autosize=1;strokeColor=none;fillColor=none;fontSize=24;fontFamily=Times New Roman;fontColor=#000000;" parent="1" vertex="1">
          <mxGeometry x="1059.88" y="207.5" width="90" height="40" as="geometry" />
        </mxCell>
        <mxCell id="qb8SzJnQ2sGDi6gfCLAQ-243" value="" style="shape=cube;whiteSpace=wrap;html=1;boundedLbl=1;backgroundOutline=1;darkOpacity=0.05;darkOpacity2=0.1;fontSize=18;" parent="1" vertex="1">
          <mxGeometry x="70" y="-236" width="49.5" height="130" as="geometry" />
        </mxCell>
        <mxCell id="qb8SzJnQ2sGDi6gfCLAQ-245" value="" style="shape=cube;whiteSpace=wrap;html=1;boundedLbl=1;backgroundOutline=1;darkOpacity=0.05;darkOpacity2=0.1;fontSize=18;fillColor=#dae8fc;strokeColor=#6c8ebf;" parent="1" vertex="1">
          <mxGeometry x="160" y="-570" width="30" height="130" as="geometry" />
        </mxCell>
        <mxCell id="qb8SzJnQ2sGDi6gfCLAQ-246" value="" style="shape=cube;whiteSpace=wrap;html=1;boundedLbl=1;backgroundOutline=1;darkOpacity=0.05;darkOpacity2=0.1;fontSize=18;fillColor=#ffcc99;strokeColor=#36393d;" parent="1" vertex="1">
          <mxGeometry x="150" y="-570" width="30" height="130" as="geometry" />
        </mxCell>
        <mxCell id="qb8SzJnQ2sGDi6gfCLAQ-251" value="" style="shape=cube;whiteSpace=wrap;html=1;boundedLbl=1;backgroundOutline=1;darkOpacity=0.05;darkOpacity2=0.1;fontSize=18;fillColor=#dae8fc;strokeColor=#6c8ebf;" parent="1" vertex="1">
          <mxGeometry x="227" y="-535" width="31.5" height="100" as="geometry" />
        </mxCell>
        <mxCell id="qb8SzJnQ2sGDi6gfCLAQ-252" value="" style="shape=cube;whiteSpace=wrap;html=1;boundedLbl=1;backgroundOutline=1;darkOpacity=0.05;darkOpacity2=0.1;fontSize=18;fillColor=#ffcc99;strokeColor=#36393d;" parent="1" vertex="1">
          <mxGeometry x="215" y="-535" width="31.5" height="100" as="geometry" />
        </mxCell>
        <mxCell id="qb8SzJnQ2sGDi6gfCLAQ-253" value="" style="shape=cube;whiteSpace=wrap;html=1;boundedLbl=1;backgroundOutline=1;darkOpacity=0.05;darkOpacity2=0.1;fontSize=18;fillColor=#dae8fc;strokeColor=#6c8ebf;" parent="1" vertex="1">
          <mxGeometry x="285.5" y="-513" width="34.5" height="85" as="geometry" />
        </mxCell>
        <mxCell id="qb8SzJnQ2sGDi6gfCLAQ-254" value="" style="shape=cube;whiteSpace=wrap;html=1;boundedLbl=1;backgroundOutline=1;darkOpacity=0.05;darkOpacity2=0.1;fontSize=18;fillColor=#ffcc99;strokeColor=#36393d;" parent="1" vertex="1">
          <mxGeometry x="273" y="-513" width="34.5" height="85" as="geometry" />
        </mxCell>
        <mxCell id="qb8SzJnQ2sGDi6gfCLAQ-257" value="" style="endArrow=classic;html=1;rounded=0;fontSize=18;strokeWidth=2;" parent="1" edge="1">
          <mxGeometry width="50" height="50" relative="1" as="geometry">
            <mxPoint x="380" y="-292" as="sourcePoint" />
            <mxPoint x="424" y="-292" as="targetPoint" />
          </mxGeometry>
        </mxCell>
        <mxCell id="qb8SzJnQ2sGDi6gfCLAQ-259" value="" style="endArrow=classic;html=1;rounded=0;fontSize=18;strokeWidth=2;" parent="1" edge="1">
          <mxGeometry width="50" height="50" relative="1" as="geometry">
            <mxPoint x="724.5" y="-288.59" as="sourcePoint" />
            <mxPoint x="760" y="-288" as="targetPoint" />
          </mxGeometry>
        </mxCell>
        <mxCell id="qb8SzJnQ2sGDi6gfCLAQ-260" value="" style="endArrow=classic;html=1;fontSize=18;strokeWidth=2;rounded=1;strokeColor=default;dashed=1;" parent="1" edge="1">
          <mxGeometry width="50" height="50" relative="1" as="geometry">
            <mxPoint x="164.41" y="-570" as="sourcePoint" />
            <mxPoint x="940" y="-400" as="targetPoint" />
            <Array as="points">
              <mxPoint x="164" y="-600" />
              <mxPoint x="940" y="-600" />
            </Array>
          </mxGeometry>
        </mxCell>
        <mxCell id="qb8SzJnQ2sGDi6gfCLAQ-261" value="" style="endArrow=classic;html=1;fontSize=18;strokeWidth=2;rounded=1;strokeColor=default;dashed=1;" parent="1" edge="1">
          <mxGeometry width="50" height="50" relative="1" as="geometry">
            <mxPoint x="231.90999999999985" y="-540" as="sourcePoint" />
            <mxPoint x="890" y="-370" as="targetPoint" />
            <Array as="points">
              <mxPoint x="231.5" y="-570" />
              <mxPoint x="890" y="-570" />
            </Array>
          </mxGeometry>
        </mxCell>
        <mxCell id="qb8SzJnQ2sGDi6gfCLAQ-262" value="" style="endArrow=classic;html=1;fontSize=18;strokeWidth=2;rounded=1;strokeColor=default;dashed=1;" parent="1" edge="1">
          <mxGeometry width="50" height="50" relative="1" as="geometry">
            <mxPoint x="296.15999999999985" y="-515" as="sourcePoint" />
            <mxPoint x="840" y="-350" as="targetPoint" />
            <Array as="points">
              <mxPoint x="295.75" y="-545" />
              <mxPoint x="840" y="-545" />
            </Array>
          </mxGeometry>
        </mxCell>
        <mxCell id="qb8SzJnQ2sGDi6gfCLAQ-263" value="" style="shape=cube;whiteSpace=wrap;html=1;boundedLbl=1;backgroundOutline=1;darkOpacity=0.05;darkOpacity2=0.1;fontSize=18;fillColor=#dae8fc;strokeColor=#6c8ebf;direction=east;" parent="1" vertex="1">
          <mxGeometry x="809.75" y="-329.5" width="34.5" height="85" as="geometry" />
        </mxCell>
        <mxCell id="qb8SzJnQ2sGDi6gfCLAQ-264" value="" style="shape=cube;whiteSpace=wrap;html=1;boundedLbl=1;backgroundOutline=1;darkOpacity=0.05;darkOpacity2=0.1;fontSize=18;fillColor=#dae8fc;strokeColor=#6c8ebf;direction=east;" parent="1" vertex="1">
          <mxGeometry x="871" y="-351" width="31.5" height="100" as="geometry" />
        </mxCell>
        <mxCell id="qb8SzJnQ2sGDi6gfCLAQ-266" value="" style="shape=cube;whiteSpace=wrap;html=1;boundedLbl=1;backgroundOutline=1;darkOpacity=0.05;darkOpacity2=0.1;fontSize=18;fillColor=#dae8fc;strokeColor=#6c8ebf;direction=east;" parent="1" vertex="1">
          <mxGeometry x="920.75" y="-383" width="30" height="130" as="geometry" />
        </mxCell>
        <mxCell id="qb8SzJnQ2sGDi6gfCLAQ-269" value="" style="endArrow=none;dashed=1;html=1;strokeWidth=2;rounded=1;fontFamily=Times New Roman;fontSize=16;fontColor=#000000;exitX=0.005;exitY=0.086;exitDx=0;exitDy=0;exitPerimeter=0;" parent="1" source="qb8SzJnQ2sGDi6gfCLAQ-3" edge="1">
          <mxGeometry width="50" height="50" relative="1" as="geometry">
            <mxPoint x="465" y="-105" as="sourcePoint" />
            <mxPoint x="541" y="-250" as="targetPoint" />
          </mxGeometry>
        </mxCell>
        <mxCell id="qb8SzJnQ2sGDi6gfCLAQ-270" value="" style="endArrow=none;dashed=1;html=1;strokeWidth=2;rounded=1;fontFamily=Times New Roman;fontSize=16;fontColor=#000000;exitX=0.947;exitY=-0.006;exitDx=0;exitDy=0;exitPerimeter=0;" parent="1" source="qb8SzJnQ2sGDi6gfCLAQ-3" edge="1">
          <mxGeometry width="50" height="50" relative="1" as="geometry">
            <mxPoint x="500.15125000000035" y="-27.399999999999864" as="sourcePoint" />
            <mxPoint x="690" y="-250" as="targetPoint" />
          </mxGeometry>
        </mxCell>
        <mxCell id="qb8SzJnQ2sGDi6gfCLAQ-272" value="" style="endArrow=classic;html=1;rounded=0;fontSize=18;strokeWidth=2;" parent="1" edge="1">
          <mxGeometry width="50" height="50" relative="1" as="geometry">
            <mxPoint x="560" y="-426" as="sourcePoint" />
            <mxPoint x="666" y="-560" as="targetPoint" />
            <Array as="points">
              <mxPoint x="665.5" y="-425.82" />
            </Array>
          </mxGeometry>
        </mxCell>
        <mxCell id="qb8SzJnQ2sGDi6gfCLAQ-273" value="2*Up" style="text;html=1;align=center;verticalAlign=middle;resizable=0;points=[];autosize=1;strokeColor=none;fillColor=none;fontSize=16;fontFamily=Times New Roman;fontColor=#000000;" parent="1" vertex="1">
          <mxGeometry x="603" y="-497.82" width="50" height="20" as="geometry" />
        </mxCell>
        <mxCell id="qb8SzJnQ2sGDi6gfCLAQ-274" value="" style="endArrow=classic;html=1;rounded=0;fontSize=18;strokeWidth=2;" parent="1" edge="1">
          <mxGeometry width="50" height="50" relative="1" as="geometry">
            <mxPoint x="665.5" y="-426" as="sourcePoint" />
            <mxPoint x="756" y="-590" as="targetPoint" />
            <Array as="points">
              <mxPoint x="755.5" y="-425.82" />
            </Array>
          </mxGeometry>
        </mxCell>
        <mxCell id="qb8SzJnQ2sGDi6gfCLAQ-276" value="4*Up" style="text;html=1;align=center;verticalAlign=middle;resizable=0;points=[];autosize=1;strokeColor=none;fillColor=none;fontSize=16;fontFamily=Times New Roman;fontColor=#000000;" parent="1" vertex="1">
          <mxGeometry x="673" y="-497.82" width="50" height="20" as="geometry" />
        </mxCell>
        <mxCell id="qb8SzJnQ2sGDi6gfCLAQ-278" value="8*Up" style="text;html=1;align=center;verticalAlign=middle;resizable=0;points=[];autosize=1;strokeColor=none;fillColor=none;fontSize=16;fontFamily=Times New Roman;fontColor=#000000;" parent="1" vertex="1">
          <mxGeometry x="762.5" y="-497.82" width="50" height="20" as="geometry" />
        </mxCell>
        <mxCell id="uinWj33085QJxnozp_xM-11" value="" style="endArrow=none;html=1;rounded=0;fontSize=20;" edge="1" parent="1">
          <mxGeometry width="50" height="50" relative="1" as="geometry">
            <mxPoint x="608" y="247.5" as="sourcePoint" />
            <mxPoint x="608" y="117.5" as="targetPoint" />
          </mxGeometry>
        </mxCell>
        <mxCell id="uinWj33085QJxnozp_xM-12" value="&lt;font style=&quot;font-size: 24px&quot;&gt;c&lt;/font&gt;" style="ellipse;whiteSpace=wrap;html=1;aspect=fixed;" vertex="1" parent="1">
          <mxGeometry x="425.37" y="-304" width="26.5" height="26.5" as="geometry" />
        </mxCell>
        <mxCell id="uinWj33085QJxnozp_xM-13" value="" style="endArrow=classic;html=1;rounded=0;fontSize=18;strokeWidth=2;" edge="1" parent="1">
          <mxGeometry width="50" height="50" relative="1" as="geometry">
            <mxPoint x="460" y="-289" as="sourcePoint" />
            <mxPoint x="540" y="-289" as="targetPoint" />
          </mxGeometry>
        </mxCell>
        <mxCell id="uinWj33085QJxnozp_xM-15" value="" style="endArrow=classic;html=1;rounded=0;fontSize=18;strokeWidth=2;" edge="1" parent="1">
          <mxGeometry width="50" height="50" relative="1" as="geometry">
            <mxPoint x="480.45" y="-295" as="sourcePoint" />
            <mxPoint x="481" y="-383.82" as="targetPoint" />
          </mxGeometry>
        </mxCell>
        <mxCell id="uinWj33085QJxnozp_xM-16" value="&lt;span style=&quot;font-family: &amp;#34;times new roman&amp;#34; ; font-size: 18px&quot;&gt;&lt;b&gt;Modality Attention Gate&lt;/b&gt;&lt;/span&gt;" style="rounded=1;whiteSpace=wrap;html=1;fontSize=24;" vertex="1" parent="1">
          <mxGeometry x="414" y="-456.82" width="140" height="60" as="geometry" />
        </mxCell>
        <mxCell id="uinWj33085QJxnozp_xM-19" value="" style="endArrow=classic;html=1;rounded=0;fontSize=18;strokeWidth=2;" edge="1" parent="1">
          <mxGeometry width="50" height="50" relative="1" as="geometry">
            <mxPoint x="587" y="-427.82" as="sourcePoint" />
            <mxPoint x="587" y="-520" as="targetPoint" />
          </mxGeometry>
        </mxCell>
        <mxCell id="uinWj33085QJxnozp_xM-23" value="" style="endArrow=classic;html=1;rounded=0;fontSize=18;strokeWidth=2;" edge="1" parent="1">
          <mxGeometry width="50" height="50" relative="1" as="geometry">
            <mxPoint x="187.27" y="-392.18" as="sourcePoint" />
            <mxPoint x="186.81999999999957" y="-435.99999999999994" as="targetPoint" />
          </mxGeometry>
        </mxCell>
        <mxCell id="uinWj33085QJxnozp_xM-26" value="" style="endArrow=classic;html=1;rounded=0;fontSize=18;strokeWidth=2;" edge="1" parent="1">
          <mxGeometry width="50" height="50" relative="1" as="geometry">
            <mxPoint x="252" y="-370" as="sourcePoint" />
            <mxPoint x="251.8199999999997" y="-425" as="targetPoint" />
          </mxGeometry>
        </mxCell>
        <mxCell id="uinWj33085QJxnozp_xM-28" value="" style="endArrow=classic;html=1;rounded=0;fontSize=18;strokeWidth=2;" edge="1" parent="1">
          <mxGeometry width="50" height="50" relative="1" as="geometry">
            <mxPoint x="312" y="-356" as="sourcePoint" />
            <mxPoint x="311.8199999999997" y="-411" as="targetPoint" />
          </mxGeometry>
        </mxCell>
        <mxCell id="uinWj33085QJxnozp_xM-30" value="" style="shape=image;verticalLabelPosition=bottom;labelBackgroundColor=#ffffff;verticalAlign=top;aspect=fixed;imageAspect=0;image=data:image/png,iVBORw0KGgoAAAANSUhEUgAAADYAAAAyCAYAAAAX1CjLAAAO0ElEQVRoBa3aZ8yURRcG4E384Q9NjIkasZfERMSCigV7QVDsFUFREHsXe8GOgl3sFaXZG9i7YO+CYqco9t77+XKdZMjDfrvs+4qTbHbZd56ZU+5zn3tmqcUcjH/++Se8/vrrr/jzzz/jl19+ia+++iqmT58ekydPjhdffDGefPLJePbZZ+Oll16KSZMmxQcffBCffvppfPvttzn/77//Dq+ylvf/YtT+7SLFEEb98ccf8dtvv6WxH374Ybzyyivx8MMPx5gxY+Kyyy6L4cOHx8033xz33XdfPPPMM/HWW2/FRx99lPMFRGCqDv5bm6rPtcsxRvz000/xzTffZFbefPPNeO655+KJJ56I+++/P26//fa44YYb4pJLLokhQ4bEySefHEcffXQcd9xxceKJJ8Zpp50W5557blx66aVx4403xp133hmPPPJITJgwIV5++eV4++2347PPPssglcCV96rRbfncJsfK4qAGRgx47LHH0onBgwen8fvss0/06dMndt5559huu+1ihx12yM+9evWK7bffPrbaaqvYfPPN89WjR4/8rm/fvnHQQQfFoEGD4sILL4ybbropIfvdd99lFmWyZJMN7RktHbOgxX///fesH3Xy6KOPxpVXXhlHHHFEGrzWWmvFsssuGx06dIhFF100Fl988ejYsWOsvfba0a1bt/B3/15iiSViwQUXjHnnnTfmn3/+nLf88svHxhtvHL17986syuK0adMSGb/++mvC3P7/qWMWUz8ff/xx1s29994bV1xxRZxwwgnp1CGHHBIHHHBA7LvvvrHXXnvF3nvvHQceeGD+zZwzzzwzzjvvvDjjjDPS6IEDB+b8/v37x5577hn9+vXL52TbOv5+9tlnx7XXXpv1+MYbb8TXX38dP/74Y9rRHueaZswiChr8MNqIESPipJNOSrjJRM+ePdOYs846Kwli5MiRcffdd2fNqDs18/rrr4c6ZOCrr74azz//fLLkgw8+GHfddVeSCyfOOeecrEPOcRZ8jz322Ljtttti6tSp8eWXX6YdbGqrc00dK9SNnsFD4Ysyh9ZYY43Yaaed4pRTTkm2A03GYzrEIsv1FM6gKvmYix05a33siWBkfosttkgHL7jggoT9xIkT4/PPP89ysEZbnPs/xzzEKPBDzWgakx166KEJuWOOOSYQhkhjQpl4991345NPPpnZm0pN1BtgXbX6888/51wMqJ4EBTOOHTs2rrnmmlwfoXhByejRo3MfQfOs9VuNWRwrTnnQZvrPkUceGfvtt1/stttu6RxIar7YsWykh8mS50qmmm1c3cMzHIUOdfTFF19kFsePH58OYsx11lknYakHVhFRH7T6/WZxzEaoltEPPPBAnH766bHLLrsk7Hbcccd0UA+iJt55550s7FYb1G/Y6N/Yz77qSU/UC0899dRAMhhTYM8///y45557MuDff/99ywDOdIyBmu+UKVPihRdeyIgp5o022ij0nW222SZ23333ZDzMdccdd2Q/a5WhRo5Uv7OvzKtlAVNXe+yxR/ZBLaCwJyePOuqo3FfgC9yra1U/p2MWZyCdhwGxkYjJ0iqrrBIbbLBBbL311jMzp/mi8qeeeipVgoL2fHuHfRlIW9KToI8V9cROnTplg0dQffv2TUiuu+66yaBqGoQ922zUGATjooZ90DYZpB/pT14kEQIZOnRoHH744UnHmvPll1+e9I7diFqGerVlqEt7cgoJWR9CKJdNNtkkG7bgaQved91112RkZIJFX3vttSyZZoip8doG8K2/oNwNN9wwNzj++OOT/bAVeJJRGi5IgsvBBx+cetDm2K3ZJo0cVSfgp+dZkwxbbbXV0niUT2uOGzcu7YIgbAya2FnDJ7ARXDNI1hDGjBkzkk5HjRoV+++/f6y44orp2MUXX5wQef/99+OHH37I6NpERgcMGJDN2mbqQmtA3+Y1g4hsgq1sqeXHH388rrvuusyU3rjccsslGtQwosC+giWo0AEt7ANXxKZ/QlujUqjBKsw6Zlx11VVZoNtuu23CT8oZoPNjLnADAQqDaD3ssMOSNRX1sGHDsg/RknpNI1gyAPsJJKMoDoFRy8iJiJYp1K4sBMo6AgtNGJmMQ2bkG9HMNqQnQdVRY7AmaxJKRRp6l0ZJFhUhKnIM028s5rgBEoxiENbSUNWLADSCpUxxCoSuvvrqDMpCCy0U66+/ftayYHFAv2KsoBv04nvvvZd/Y9vKK68c3bt3z+OREvJ3dlZHTXTBiKQhmxRqoXOZFLHq8G9GgwlVwhm1poEjGutQEepH7Zpfsu0QKlOCBs6ytMIKK+Szgqp3IiJOea7szUaMLdDOeKuuumpsuummSTgyK1ieqY6amrBZOVd5h+eHHnooYVid7HPZUNbAzjy1CPtIRUSxJxhzXr2Zq6GDu6BhPk4Ru2pVjfobyJkrU8Upe4IZ5wQa0eitW265ZcL26aefzudAvDpqvsB6Isg4G9NmHhCJZsPGMidSaoIaJ4xBU59T3Bou+MmenufIw6kFFlggM4X9ZI/asFcj+Jb97UePgjAOsI8kyLKsyWh11MDl1ltvDWciEVe8zl2OHLRbs1Eyx3Bzb7nllpl9Ts9BLDJvY8aDEKhyXp/CbBdddFE670Telj5I4dOq7PRS42zHmv5WHTWF5/6BJtRLMFWpEZu1GqAmWmCkz6kVPY5aUHuaO3JZb731Ys0118xIo221aL5M2UeAWg0wFUDiASviBO0CGurRVTNZep2BMA0FgNKlvb4gm21cYElFaJxUuUCpI1cDWGzhhRdOqcRp+zEGo80OfvX7CaBWo2zsQW65OFKf9q6OGriJHhWtKBUnaFhE82vLKLDUd0DPqRopcMqdRnlZHyS1CkRgj/JsW/aBLmqEOpJ1a7FXjQtSdaRjWK1r164pNEFJU8aWpY9UH5jdZ/VKIqkDGxOtLm6IWutT6tdff32SiX74b9YXOMREFGg1gkilaCWCVMYcZ8xiMiuaepC7RUWN8WRMn+IUqKsLCgULon9oKXKoalQxrv69mjHkVJ+x6ho1cBBFxOHuD3m4h5BaQrXVQB4giHLhn/rmhDtEfQrbyhTphFCcCtA0paOWBUXm1FqrgQ8ErlxTqDEtBAlRK9WRrGgT9IumNVeyxu0Sp1sNEVcvICIogjPffPMlYShwjMsRR5Jyeaq5UuvqRR8tQrbVXjJMqLNVkMg/xyw91+GzOmqoVqTVBKho0ChV1jBjs0EJ6B2IRhRtYkOZRxLIQx/TOtSA4z7GdXeI/jlNcdjbjxfomvQSqCqkyv6+Y7xLJM1Zo1drjkykVn3PTUlFFjEMTBQjOiaznLGaDbAgZjESrFPcbnxtqLCdFFA6Y5AReUWJUOiyRzRTOgLq5EyIC7Ls1cOSU16c9/xmm22WyKBrMazaRlzVUdOr3AphRvWh6XHOnQaIVYcN1YNsMVQmZIEKWGmllfLl4gUrOurDPYM856UWBYJBBZrq0b4yJ/sCwTm1WxwsWhHhQFS5OmcnFsaI9XxQs4h7jlILNJ9IgpEolmhxEFRsXNgP3RZt6IeHou6dFmwmA+V571oI4exoY32NViN3xsKkSExWBaTaDrBhObbIsN8BnPLVNC5QMoJdHTVSxh9F33mIDHLbi3HUh6gxyhAVhpVegvkWW2yxZEBkAFIKWe01IoRynlMP5lEN6hoRcBCDKgNsaY2ifDA0h/0Qgl398KGF6LkURyNJllcDaklKMYz6gGF9AomIlL/LFPiBKJZDDs5EIMg4Qlem1JNglWBUo+iz7wXLPGIblNU2RuacgGJpjjsVcI7IFTRocnJwc+bdd5hbtgStOvIyh8c8dwcBtzQew312hEHLIoaBSp9C2YwhSMFKnZbo1W9S3ZBjXopdTSEYQRFQ/U4ZYE41j9TA0tmOmEZMnNc2lIG2xPFGfTDvFUWQMYpTw/OgF+cKU9pcj+OQPuVGSaMUXa0BvKqwrTrT6DPnEITsyo4jDKdkwlUBsQx6Gj+14vvVV189oViyOttbKpsWeKBTrIV5FDTn0LgzFImEoh3yXKCCnyCAMMgoduu0dZhbnCsN3nrgZl/Z8xsbgS6DLmxJNJnVpO0rm4LZaMxyxU0FIBIQQMmy41dIIpZCV7Cg4PivyMEPhSOV+luiRpvVf1ecUwoIgrHOV4wXSKTCSU0fofkss2oOE2LZZsGc6ZhNYRW1IgvQU2vU+dxzzx1zzTVX/rRKNYisemRMMa7e6Pb8u5QCJtQK1DbHkJiAQgjUcBh5ITIwbuaUvWdxTJ0pxqKiQYCaWGaZZWKeeeZJapexUth6VXvqqpmz9tUekA+ComTQulP3UkstlfCnjEg3vRVCWu07i2MiYBOZ07SxHQJxrnIBo39oyBojqtYKikKYXfSaOVS+RyBg5XrBlZ6eqOEjC/eONCin/BgJtm2B/SyOlY0Yqc+gU4yE0glbP8KheIqBZnO7JYL6m/nIB5xknKGlSRfnvVMviAbdm8tYSgazaitEAoEsY4jKdQU2JnTLOm0JYkPHOGhjGUHFWAiZoHcZVMTekYhmjZZFlCA1n7OeRSygzRlR9k48CwKqNpeKofwZL1OCiOo5R2ZR83qooLWCX0mM96aOiUqJMJIQUcpEGyBCO3fuHF26dMksiq4GirEYSdAyGo0LkAxxShY55ZiirZgL1pwhhrEuwgBDdQYxVAWosqU9o6ljZRELMo5BJBMZo79Q8WCpv6Bl2fSzk+Ypuy5Z9CDC1jNENkccZ2hEfzfPxQx96oTgmpwgcLfpVx26tD3wKzZ7b+mYzIkYJtI79DnimNRiGAfLqwhaUKUUtItyTaBWfPa9loHOKQ2aFKTB0HpQYX3Zbu8tVrscq07mJJyLIvlFw1Ep9GM5gWsH1AqiIZCXXnrp7H+LLLJILLnkkglhN8HYVSD0Jg4hI1lSn6XxtoUkqvZVP7fMWHWyz8U5jOZ4oQ4ceVw1O2CCmj6HDBxawZNMwqTqECG4EkA45iMdTRlB+O+AZJJ6nBOn2Nlux4pzBZ7ELyWAtTRYtagfgZI2ALpqhZj1TtFjTPPMB29BAjuSjlNQMafjf1FW3AVNPNRfAAAAAElFTkSuQmCC;" vertex="1" parent="1">
          <mxGeometry x="571.63" y="-560.48" width="34" height="31.48" as="geometry" />
        </mxCell>
        <mxCell id="uinWj33085QJxnozp_xM-32" value="" style="shape=image;verticalLabelPosition=bottom;labelBackgroundColor=#ffffff;verticalAlign=top;aspect=fixed;imageAspect=0;image=data:image/png,iVBORw0KGgoAAAANSUhEUgAAADYAAAAyCAYAAAAX1CjLAAAO0ElEQVRoBa3aZ8yURRcG4E384Q9NjIkasZfERMSCigV7QVDsFUFREHsXe8GOgl3sFaXZG9i7YO+CYqco9t77+XKdZMjDfrvs+4qTbHbZd56ZU+5zn3tmqcUcjH/++Se8/vrrr/jzzz/jl19+ia+++iqmT58ekydPjhdffDGefPLJePbZZ+Oll16KSZMmxQcffBCffvppfPvttzn/77//Dq+ylvf/YtT+7SLFEEb98ccf8dtvv6WxH374Ybzyyivx8MMPx5gxY+Kyyy6L4cOHx8033xz33XdfPPPMM/HWW2/FRx99lPMFRGCqDv5bm6rPtcsxRvz000/xzTffZFbefPPNeO655+KJJ56I+++/P26//fa44YYb4pJLLokhQ4bEySefHEcffXQcd9xxceKJJ8Zpp50W5557blx66aVx4403xp133hmPPPJITJgwIV5++eV4++2347PPPssglcCV96rRbfncJsfK4qAGRgx47LHH0onBgwen8fvss0/06dMndt5559huu+1ihx12yM+9evWK7bffPrbaaqvYfPPN89WjR4/8rm/fvnHQQQfFoEGD4sILL4ybbropIfvdd99lFmWyZJMN7RktHbOgxX///fesH3Xy6KOPxpVXXhlHHHFEGrzWWmvFsssuGx06dIhFF100Fl988ejYsWOsvfba0a1bt/B3/15iiSViwQUXjHnnnTfmn3/+nLf88svHxhtvHL17986syuK0adMSGb/++mvC3P7/qWMWUz8ff/xx1s29994bV1xxRZxwwgnp1CGHHBIHHHBA7LvvvrHXXnvF3nvvHQceeGD+zZwzzzwzzjvvvDjjjDPS6IEDB+b8/v37x5577hn9+vXL52TbOv5+9tlnx7XXXpv1+MYbb8TXX38dP/74Y9rRHueaZswiChr8MNqIESPipJNOSrjJRM+ePdOYs846Kwli5MiRcffdd2fNqDs18/rrr4c6ZOCrr74azz//fLLkgw8+GHfddVeSCyfOOeecrEPOcRZ8jz322Ljtttti6tSp8eWXX6YdbGqrc00dK9SNnsFD4Ysyh9ZYY43Yaaed4pRTTkm2A03GYzrEIsv1FM6gKvmYix05a33siWBkfosttkgHL7jggoT9xIkT4/PPP89ysEZbnPs/xzzEKPBDzWgakx166KEJuWOOOSYQhkhjQpl4991345NPPpnZm0pN1BtgXbX6888/51wMqJ4EBTOOHTs2rrnmmlwfoXhByejRo3MfQfOs9VuNWRwrTnnQZvrPkUceGfvtt1/stttu6RxIar7YsWykh8mS50qmmm1c3cMzHIUOdfTFF19kFsePH58OYsx11lknYakHVhFRH7T6/WZxzEaoltEPPPBAnH766bHLLrsk7Hbcccd0UA+iJt55550s7FYb1G/Y6N/Yz77qSU/UC0899dRAMhhTYM8///y45557MuDff/99ywDOdIyBmu+UKVPihRdeyIgp5o022ij0nW222SZ23333ZDzMdccdd2Q/a5WhRo5Uv7OvzKtlAVNXe+yxR/ZBLaCwJyePOuqo3FfgC9yra1U/p2MWZyCdhwGxkYjJ0iqrrBIbbLBBbL311jMzp/mi8qeeeipVgoL2fHuHfRlIW9KToI8V9cROnTplg0dQffv2TUiuu+66yaBqGoQ922zUGATjooZ90DYZpB/pT14kEQIZOnRoHH744UnHmvPll1+e9I7diFqGerVlqEt7cgoJWR9CKJdNNtkkG7bgaQved91112RkZIJFX3vttSyZZoip8doG8K2/oNwNN9wwNzj++OOT/bAVeJJRGi5IgsvBBx+cetDm2K3ZJo0cVSfgp+dZkwxbbbXV0niUT2uOGzcu7YIgbAya2FnDJ7ARXDNI1hDGjBkzkk5HjRoV+++/f6y44orp2MUXX5wQef/99+OHH37I6NpERgcMGJDN2mbqQmtA3+Y1g4hsgq1sqeXHH388rrvuusyU3rjccsslGtQwosC+giWo0AEt7ANXxKZ/QlujUqjBKsw6Zlx11VVZoNtuu23CT8oZoPNjLnADAQqDaD3ssMOSNRX1sGHDsg/RknpNI1gyAPsJJKMoDoFRy8iJiJYp1K4sBMo6AgtNGJmMQ2bkG9HMNqQnQdVRY7AmaxJKRRp6l0ZJFhUhKnIM028s5rgBEoxiENbSUNWLADSCpUxxCoSuvvrqDMpCCy0U66+/ftayYHFAv2KsoBv04nvvvZd/Y9vKK68c3bt3z+OREvJ3dlZHTXTBiKQhmxRqoXOZFLHq8G9GgwlVwhm1poEjGutQEepH7Zpfsu0QKlOCBs6ytMIKK+Szgqp3IiJOea7szUaMLdDOeKuuumpsuummSTgyK1ieqY6amrBZOVd5h+eHHnooYVid7HPZUNbAzjy1CPtIRUSxJxhzXr2Zq6GDu6BhPk4Ru2pVjfobyJkrU8Upe4IZ5wQa0eitW265ZcL26aefzudAvDpqvsB6Isg4G9NmHhCJZsPGMidSaoIaJ4xBU59T3Bou+MmenufIw6kFFlggM4X9ZI/asFcj+Jb97UePgjAOsI8kyLKsyWh11MDl1ltvDWciEVe8zl2OHLRbs1Eyx3Bzb7nllpl9Ts9BLDJvY8aDEKhyXp/CbBdddFE670Telj5I4dOq7PRS42zHmv5WHTWF5/6BJtRLMFWpEZu1GqAmWmCkz6kVPY5aUHuaO3JZb731Ys0118xIo221aL5M2UeAWg0wFUDiASviBO0CGurRVTNZep2BMA0FgNKlvb4gm21cYElFaJxUuUCpI1cDWGzhhRdOqcRp+zEGo80OfvX7CaBWo2zsQW65OFKf9q6OGriJHhWtKBUnaFhE82vLKLDUd0DPqRopcMqdRnlZHyS1CkRgj/JsW/aBLmqEOpJ1a7FXjQtSdaRjWK1r164pNEFJU8aWpY9UH5jdZ/VKIqkDGxOtLm6IWutT6tdff32SiX74b9YXOMREFGg1gkilaCWCVMYcZ8xiMiuaepC7RUWN8WRMn+IUqKsLCgULon9oKXKoalQxrv69mjHkVJ+x6ho1cBBFxOHuD3m4h5BaQrXVQB4giHLhn/rmhDtEfQrbyhTphFCcCtA0paOWBUXm1FqrgQ8ErlxTqDEtBAlRK9WRrGgT9IumNVeyxu0Sp1sNEVcvICIogjPffPMlYShwjMsRR5Jyeaq5UuvqRR8tQrbVXjJMqLNVkMg/xyw91+GzOmqoVqTVBKho0ChV1jBjs0EJ6B2IRhRtYkOZRxLIQx/TOtSA4z7GdXeI/jlNcdjbjxfomvQSqCqkyv6+Y7xLJM1Zo1drjkykVn3PTUlFFjEMTBQjOiaznLGaDbAgZjESrFPcbnxtqLCdFFA6Y5AReUWJUOiyRzRTOgLq5EyIC7Ls1cOSU16c9/xmm22WyKBrMazaRlzVUdOr3AphRvWh6XHOnQaIVYcN1YNsMVQmZIEKWGmllfLl4gUrOurDPYM856UWBYJBBZrq0b4yJ/sCwTm1WxwsWhHhQFS5OmcnFsaI9XxQs4h7jlILNJ9IgpEolmhxEFRsXNgP3RZt6IeHou6dFmwmA+V571oI4exoY32NViN3xsKkSExWBaTaDrBhObbIsN8BnPLVNC5QMoJdHTVSxh9F33mIDHLbi3HUh6gxyhAVhpVegvkWW2yxZEBkAFIKWe01IoRynlMP5lEN6hoRcBCDKgNsaY2ifDA0h/0Qgl398KGF6LkURyNJllcDaklKMYz6gGF9AomIlL/LFPiBKJZDDs5EIMg4Qlem1JNglWBUo+iz7wXLPGIblNU2RuacgGJpjjsVcI7IFTRocnJwc+bdd5hbtgStOvIyh8c8dwcBtzQew312hEHLIoaBSp9C2YwhSMFKnZbo1W9S3ZBjXopdTSEYQRFQ/U4ZYE41j9TA0tmOmEZMnNc2lIG2xPFGfTDvFUWQMYpTw/OgF+cKU9pcj+OQPuVGSaMUXa0BvKqwrTrT6DPnEITsyo4jDKdkwlUBsQx6Gj+14vvVV189oViyOttbKpsWeKBTrIV5FDTn0LgzFImEoh3yXKCCnyCAMMgoduu0dZhbnCsN3nrgZl/Z8xsbgS6DLmxJNJnVpO0rm4LZaMxyxU0FIBIQQMmy41dIIpZCV7Cg4PivyMEPhSOV+luiRpvVf1ecUwoIgrHOV4wXSKTCSU0fofkss2oOE2LZZsGc6ZhNYRW1IgvQU2vU+dxzzx1zzTVX/rRKNYisemRMMa7e6Pb8u5QCJtQK1DbHkJiAQgjUcBh5ITIwbuaUvWdxTJ0pxqKiQYCaWGaZZWKeeeZJapexUth6VXvqqpmz9tUekA+ComTQulP3UkstlfCnjEg3vRVCWu07i2MiYBOZ07SxHQJxrnIBo39oyBojqtYKikKYXfSaOVS+RyBg5XrBlZ6eqOEjC/eONCin/BgJtm2B/SyOlY0Yqc+gU4yE0glbP8KheIqBZnO7JYL6m/nIB5xknKGlSRfnvVMviAbdm8tYSgazaitEAoEsY4jKdQU2JnTLOm0JYkPHOGhjGUHFWAiZoHcZVMTekYhmjZZFlCA1n7OeRSygzRlR9k48CwKqNpeKofwZL1OCiOo5R2ZR83qooLWCX0mM96aOiUqJMJIQUcpEGyBCO3fuHF26dMksiq4GirEYSdAyGo0LkAxxShY55ZiirZgL1pwhhrEuwgBDdQYxVAWosqU9o6ljZRELMo5BJBMZo79Q8WCpv6Bl2fSzk+Ypuy5Z9CDC1jNENkccZ2hEfzfPxQx96oTgmpwgcLfpVx26tD3wKzZ7b+mYzIkYJtI79DnimNRiGAfLqwhaUKUUtItyTaBWfPa9loHOKQ2aFKTB0HpQYX3Zbu8tVrscq07mJJyLIvlFw1Ep9GM5gWsH1AqiIZCXXnrp7H+LLLJILLnkkglhN8HYVSD0Jg4hI1lSn6XxtoUkqvZVP7fMWHWyz8U5jOZ4oQ4ceVw1O2CCmj6HDBxawZNMwqTqECG4EkA45iMdTRlB+O+AZJJ6nBOn2Nlux4pzBZ7ELyWAtTRYtagfgZI2ALpqhZj1TtFjTPPMB29BAjuSjlNQMafjf1FW3AVNPNRfAAAAAElFTkSuQmCC;" vertex="1" parent="1">
          <mxGeometry x="650.13" y="-591.96" width="34" height="31.48" as="geometry" />
        </mxCell>
        <mxCell id="uinWj33085QJxnozp_xM-34" value="" style="shape=image;verticalLabelPosition=bottom;labelBackgroundColor=#ffffff;verticalAlign=top;aspect=fixed;imageAspect=0;image=data:image/png,iVBORw0KGgoAAAANSUhEUgAAADYAAAAyCAYAAAAX1CjLAAAO0ElEQVRoBa3aZ8yURRcG4E384Q9NjIkasZfERMSCigV7QVDsFUFREHsXe8GOgl3sFaXZG9i7YO+CYqco9t77+XKdZMjDfrvs+4qTbHbZd56ZU+5zn3tmqcUcjH/++Se8/vrrr/jzzz/jl19+ia+++iqmT58ekydPjhdffDGefPLJePbZZ+Oll16KSZMmxQcffBCffvppfPvttzn/77//Dq+ylvf/YtT+7SLFEEb98ccf8dtvv6WxH374Ybzyyivx8MMPx5gxY+Kyyy6L4cOHx8033xz33XdfPPPMM/HWW2/FRx99lPMFRGCqDv5bm6rPtcsxRvz000/xzTffZFbefPPNeO655+KJJ56I+++/P26//fa44YYb4pJLLokhQ4bEySefHEcffXQcd9xxceKJJ8Zpp50W5557blx66aVx4403xp133hmPPPJITJgwIV5++eV4++2347PPPssglcCV96rRbfncJsfK4qAGRgx47LHH0onBgwen8fvss0/06dMndt5559huu+1ihx12yM+9evWK7bffPrbaaqvYfPPN89WjR4/8rm/fvnHQQQfFoEGD4sILL4ybbropIfvdd99lFmWyZJMN7RktHbOgxX///fesH3Xy6KOPxpVXXhlHHHFEGrzWWmvFsssuGx06dIhFF100Fl988ejYsWOsvfba0a1bt/B3/15iiSViwQUXjHnnnTfmn3/+nLf88svHxhtvHL17986syuK0adMSGb/++mvC3P7/qWMWUz8ff/xx1s29994bV1xxRZxwwgnp1CGHHBIHHHBA7LvvvrHXXnvF3nvvHQceeGD+zZwzzzwzzjvvvDjjjDPS6IEDB+b8/v37x5577hn9+vXL52TbOv5+9tlnx7XXXpv1+MYbb8TXX38dP/74Y9rRHueaZswiChr8MNqIESPipJNOSrjJRM+ePdOYs846Kwli5MiRcffdd2fNqDs18/rrr4c6ZOCrr74azz//fLLkgw8+GHfddVeSCyfOOeecrEPOcRZ8jz322Ljtttti6tSp8eWXX6YdbGqrc00dK9SNnsFD4Ysyh9ZYY43Yaaed4pRTTkm2A03GYzrEIsv1FM6gKvmYix05a33siWBkfosttkgHL7jggoT9xIkT4/PPP89ysEZbnPs/xzzEKPBDzWgakx166KEJuWOOOSYQhkhjQpl4991345NPPpnZm0pN1BtgXbX6888/51wMqJ4EBTOOHTs2rrnmmlwfoXhByejRo3MfQfOs9VuNWRwrTnnQZvrPkUceGfvtt1/stttu6RxIar7YsWykh8mS50qmmm1c3cMzHIUOdfTFF19kFsePH58OYsx11lknYakHVhFRH7T6/WZxzEaoltEPPPBAnH766bHLLrsk7Hbcccd0UA+iJt55550s7FYb1G/Y6N/Yz77qSU/UC0899dRAMhhTYM8///y45557MuDff/99ywDOdIyBmu+UKVPihRdeyIgp5o022ij0nW222SZ23333ZDzMdccdd2Q/a5WhRo5Uv7OvzKtlAVNXe+yxR/ZBLaCwJyePOuqo3FfgC9yra1U/p2MWZyCdhwGxkYjJ0iqrrBIbbLBBbL311jMzp/mi8qeeeipVgoL2fHuHfRlIW9KToI8V9cROnTplg0dQffv2TUiuu+66yaBqGoQ922zUGATjooZ90DYZpB/pT14kEQIZOnRoHH744UnHmvPll1+e9I7diFqGerVlqEt7cgoJWR9CKJdNNtkkG7bgaQved91112RkZIJFX3vttSyZZoip8doG8K2/oNwNN9wwNzj++OOT/bAVeJJRGi5IgsvBBx+cetDm2K3ZJo0cVSfgp+dZkwxbbbXV0niUT2uOGzcu7YIgbAya2FnDJ7ARXDNI1hDGjBkzkk5HjRoV+++/f6y44orp2MUXX5wQef/99+OHH37I6NpERgcMGJDN2mbqQmtA3+Y1g4hsgq1sqeXHH388rrvuusyU3rjccsslGtQwosC+giWo0AEt7ANXxKZ/QlujUqjBKsw6Zlx11VVZoNtuu23CT8oZoPNjLnADAQqDaD3ssMOSNRX1sGHDsg/RknpNI1gyAPsJJKMoDoFRy8iJiJYp1K4sBMo6AgtNGJmMQ2bkG9HMNqQnQdVRY7AmaxJKRRp6l0ZJFhUhKnIM028s5rgBEoxiENbSUNWLADSCpUxxCoSuvvrqDMpCCy0U66+/ftayYHFAv2KsoBv04nvvvZd/Y9vKK68c3bt3z+OREvJ3dlZHTXTBiKQhmxRqoXOZFLHq8G9GgwlVwhm1poEjGutQEepH7Zpfsu0QKlOCBs6ytMIKK+Szgqp3IiJOea7szUaMLdDOeKuuumpsuummSTgyK1ieqY6amrBZOVd5h+eHHnooYVid7HPZUNbAzjy1CPtIRUSxJxhzXr2Zq6GDu6BhPk4Ru2pVjfobyJkrU8Upe4IZ5wQa0eitW265ZcL26aefzudAvDpqvsB6Isg4G9NmHhCJZsPGMidSaoIaJ4xBU59T3Bou+MmenufIw6kFFlggM4X9ZI/asFcj+Jb97UePgjAOsI8kyLKsyWh11MDl1ltvDWciEVe8zl2OHLRbs1Eyx3Bzb7nllpl9Ts9BLDJvY8aDEKhyXp/CbBdddFE670Telj5I4dOq7PRS42zHmv5WHTWF5/6BJtRLMFWpEZu1GqAmWmCkz6kVPY5aUHuaO3JZb731Ys0118xIo221aL5M2UeAWg0wFUDiASviBO0CGurRVTNZep2BMA0FgNKlvb4gm21cYElFaJxUuUCpI1cDWGzhhRdOqcRp+zEGo80OfvX7CaBWo2zsQW65OFKf9q6OGriJHhWtKBUnaFhE82vLKLDUd0DPqRopcMqdRnlZHyS1CkRgj/JsW/aBLmqEOpJ1a7FXjQtSdaRjWK1r164pNEFJU8aWpY9UH5jdZ/VKIqkDGxOtLm6IWutT6tdff32SiX74b9YXOMREFGg1gkilaCWCVMYcZ8xiMiuaepC7RUWN8WRMn+IUqKsLCgULon9oKXKoalQxrv69mjHkVJ+x6ho1cBBFxOHuD3m4h5BaQrXVQB4giHLhn/rmhDtEfQrbyhTphFCcCtA0paOWBUXm1FqrgQ8ErlxTqDEtBAlRK9WRrGgT9IumNVeyxu0Sp1sNEVcvICIogjPffPMlYShwjMsRR5Jyeaq5UuvqRR8tQrbVXjJMqLNVkMg/xyw91+GzOmqoVqTVBKho0ChV1jBjs0EJ6B2IRhRtYkOZRxLIQx/TOtSA4z7GdXeI/jlNcdjbjxfomvQSqCqkyv6+Y7xLJM1Zo1drjkykVn3PTUlFFjEMTBQjOiaznLGaDbAgZjESrFPcbnxtqLCdFFA6Y5AReUWJUOiyRzRTOgLq5EyIC7Ls1cOSU16c9/xmm22WyKBrMazaRlzVUdOr3AphRvWh6XHOnQaIVYcN1YNsMVQmZIEKWGmllfLl4gUrOurDPYM856UWBYJBBZrq0b4yJ/sCwTm1WxwsWhHhQFS5OmcnFsaI9XxQs4h7jlILNJ9IgpEolmhxEFRsXNgP3RZt6IeHou6dFmwmA+V571oI4exoY32NViN3xsKkSExWBaTaDrBhObbIsN8BnPLVNC5QMoJdHTVSxh9F33mIDHLbi3HUh6gxyhAVhpVegvkWW2yxZEBkAFIKWe01IoRynlMP5lEN6hoRcBCDKgNsaY2ifDA0h/0Qgl398KGF6LkURyNJllcDaklKMYz6gGF9AomIlL/LFPiBKJZDDs5EIMg4Qlem1JNglWBUo+iz7wXLPGIblNU2RuacgGJpjjsVcI7IFTRocnJwc+bdd5hbtgStOvIyh8c8dwcBtzQew312hEHLIoaBSp9C2YwhSMFKnZbo1W9S3ZBjXopdTSEYQRFQ/U4ZYE41j9TA0tmOmEZMnNc2lIG2xPFGfTDvFUWQMYpTw/OgF+cKU9pcj+OQPuVGSaMUXa0BvKqwrTrT6DPnEITsyo4jDKdkwlUBsQx6Gj+14vvVV189oViyOttbKpsWeKBTrIV5FDTn0LgzFImEoh3yXKCCnyCAMMgoduu0dZhbnCsN3nrgZl/Z8xsbgS6DLmxJNJnVpO0rm4LZaMxyxU0FIBIQQMmy41dIIpZCV7Cg4PivyMEPhSOV+luiRpvVf1ecUwoIgrHOV4wXSKTCSU0fofkss2oOE2LZZsGc6ZhNYRW1IgvQU2vU+dxzzx1zzTVX/rRKNYisemRMMa7e6Pb8u5QCJtQK1DbHkJiAQgjUcBh5ITIwbuaUvWdxTJ0pxqKiQYCaWGaZZWKeeeZJapexUth6VXvqqpmz9tUekA+ComTQulP3UkstlfCnjEg3vRVCWu07i2MiYBOZ07SxHQJxrnIBo39oyBojqtYKikKYXfSaOVS+RyBg5XrBlZ6eqOEjC/eONCin/BgJtm2B/SyOlY0Yqc+gU4yE0glbP8KheIqBZnO7JYL6m/nIB5xknKGlSRfnvVMviAbdm8tYSgazaitEAoEsY4jKdQU2JnTLOm0JYkPHOGhjGUHFWAiZoHcZVMTekYhmjZZFlCA1n7OeRSygzRlR9k48CwKqNpeKofwZL1OCiOo5R2ZR83qooLWCX0mM96aOiUqJMJIQUcpEGyBCO3fuHF26dMksiq4GirEYSdAyGo0LkAxxShY55ZiirZgL1pwhhrEuwgBDdQYxVAWosqU9o6ljZRELMo5BJBMZo79Q8WCpv6Bl2fSzk+Ypuy5Z9CDC1jNENkccZ2hEfzfPxQx96oTgmpwgcLfpVx26tD3wKzZ7b+mYzIkYJtI79DnimNRiGAfLqwhaUKUUtItyTaBWfPa9loHOKQ2aFKTB0HpQYX3Zbu8tVrscq07mJJyLIvlFw1Ep9GM5gWsH1AqiIZCXXnrp7H+LLLJILLnkkglhN8HYVSD0Jg4hI1lSn6XxtoUkqvZVP7fMWHWyz8U5jOZ4oQ4ceVw1O2CCmj6HDBxawZNMwqTqECG4EkA45iMdTRlB+O+AZJJ6nBOn2Nlux4pzBZ7ELyWAtTRYtagfgZI2ALpqhZj1TtFjTPPMB29BAjuSjlNQMafjf1FW3AVNPNRfAAAAAElFTkSuQmCC;" vertex="1" parent="1">
          <mxGeometry x="740" y="-623" width="34" height="31.48" as="geometry" />
        </mxCell>
      </root>
    </mxGraphModel>
  </diagram>
</mxfile>
